<svg width="500" height="472" viewBox="0 0 500 472" fill="none" xmlns="http://www.w3.org/2000/svg">
<path d="M18.155 377.569C18.3749 378.669 18.8237 379.71 19.4722 380.625C20.1207 381.541 20.9544 382.309 21.9191 382.881C22.8839 383.453 23.9582 383.816 25.0723 383.946C26.1864 384.076 27.3154 383.971 28.386 383.636L75.543 368.9C73.057 377.443 73.5925 386.582 77.0592 394.776C80.5258 402.97 86.7117 409.719 94.574 413.884C94.808 414.007 95.048 414.12 95.293 414.22L171.324 445.272L178.41 466.531C178.941 468.124 179.96 469.509 181.322 470.491C182.684 471.472 184.321 472 186 472H266C267.037 472 268.064 471.798 269.024 471.406L409.046 414.219C409.291 414.119 409.531 414.006 409.765 413.883C417.394 409.841 423.451 403.363 426.973 395.48C430.494 387.597 431.277 378.762 429.197 370.383L471.614 383.639C472.685 383.974 473.814 384.079 474.928 383.949C476.042 383.819 477.116 383.456 478.081 382.884C479.046 382.312 479.879 381.544 480.528 380.628C481.176 379.713 481.625 378.672 481.845 377.572L489.845 337.572C490.227 335.66 489.898 333.674 488.919 331.988C487.941 330.301 486.38 329.031 484.53 328.414L460.53 320.414C458.888 319.866 457.112 319.866 455.47 320.414L435.045 327.222L376.978 290.93L357.778 214.13C356.242 207.971 353.39 202.218 349.418 197.267C345.447 192.315 340.45 188.283 334.771 185.447C334.415 185.269 282.002 169.447 282.002 169.447V148.587C282.002 148.316 281.988 148.044 281.961 147.774C287.007 143.28 291.045 137.769 293.809 131.604C296.574 125.438 298.002 118.757 298 112V80C298 73.0934 296.506 66.2685 293.622 59.9933C290.737 53.718 286.529 48.1408 281.287 43.644L279.057 32.489C277.622 25.3159 274.268 18.6667 269.351 13.2503C264.434 7.83401 258.14 3.8537 251.138 1.73387C244.137 -0.38597 236.692 -0.56584 229.596 1.21344C222.501 2.99272 216.022 6.66443 210.849 11.837C200.402 22.2274 192.12 34.5866 186.481 48.1993C180.842 61.812 177.96 76.4078 178 91.142V93.4C178.008 100.267 176.316 107.029 173.076 113.084C169.836 119.138 165.148 124.297 159.43 128.1L157.562 129.344C156.396 130.121 155.455 131.191 154.832 132.447C154.21 133.702 153.928 135.099 154.015 136.498C154.102 137.896 154.555 139.247 155.328 140.416C156.102 141.584 157.169 142.529 158.422 143.156L164.622 146.256C172.657 150.262 181.515 152.341 190.493 152.329C199.471 152.317 208.324 150.214 216.348 146.187C216.886 146.72 217.436 147.238 217.999 147.739V169.439C217.999 169.439 165.586 185.26 165.23 185.439C159.551 188.275 154.554 192.307 150.583 197.259C146.611 202.21 143.759 207.963 142.223 214.122L123.023 290.922L64.955 327.219L44.53 320.411C42.8878 319.863 41.1121 319.863 39.47 320.411L15.47 328.411C13.6202 329.028 12.0593 330.298 11.0806 331.985C10.1018 333.671 9.77269 335.657 10.155 337.569L18.155 377.569ZM176.555 430.127L101.732 399.567C97.7215 397.36 94.4738 393.989 92.417 389.9C90.3601 385.81 89.5906 381.193 90.2098 376.657C90.829 372.122 92.8078 367.88 95.8856 364.491C98.9634 361.102 102.996 358.726 107.451 357.674C109.002 357.308 110.587 357.103 112.18 357.064H112.206C116.834 356.959 121.381 358.29 125.222 360.873C125.33 360.945 125.44 361.015 125.553 361.082L227.353 421.97L218.51 423.739L196.525 416.411C195.116 415.941 193.603 415.873 192.157 416.214C190.711 416.555 189.389 417.293 188.338 418.343L176.555 430.127ZM137.448 349.553L147.448 346.427C151.295 345.215 154.861 343.244 157.932 340.63C161.004 338.016 163.521 334.812 165.332 331.208L188.794 284.3L194 290.806V301.614C194.002 307.633 193.031 313.613 191.126 319.323L186.41 333.47L179.01 355.679L167.288 367.4L137.448 349.553ZM191.766 456L187.153 442.161L196.161 433.153L215.47 439.589C216.791 440.03 218.204 440.118 219.57 439.845L251.725 433.414L256.242 456H191.766ZM255.078 416.426L250.696 417.302C250.611 417.247 250.532 417.187 250.444 417.134L181.444 375.867L191.654 365.657C192.532 364.778 193.194 363.708 193.587 362.53L199.766 344H300.233L306.41 362.53C306.803 363.708 307.465 364.778 308.343 365.657L320.177 377.49L255.078 416.426ZM293.694 324.383L294.9 328H205.1L206.306 324.382C208.755 317.041 210.002 309.353 210 301.614V296H290V301.614C289.998 309.353 291.245 317.042 293.694 324.383ZM306 301.614V290.806L311.206 284.299L334.66 331.208C336.471 334.812 338.988 338.016 342.06 340.63C345.132 343.245 348.697 345.216 352.545 346.427L365.398 350.443L334.336 369.022L320.992 355.679L313.592 333.47L308.876 319.324C306.97 313.614 305.999 307.634 306 301.614ZM413.435 386.033C412.616 388.894 411.236 391.564 409.376 393.888C407.516 396.211 405.213 398.142 402.6 399.567L271.944 452.931L266.952 427.968L378.782 361.082C378.895 361.015 379.005 360.945 379.113 360.873C382.977 358.297 387.54 356.97 392.184 357.074C396.827 357.177 401.326 358.705 405.072 361.451C408.818 364.197 411.629 368.028 413.125 372.425C414.621 376.822 414.729 381.572 413.435 386.033ZM322 221.7V198.017L328.111 200.006C331.605 201.839 334.671 204.39 337.109 207.493C339.547 210.595 341.3 214.178 342.255 218.006L362.239 297.942C362.741 299.952 364.003 301.688 365.76 302.786L429.76 342.786C430.759 343.411 431.885 343.807 433.055 343.946C434.225 344.085 435.412 343.964 436.53 343.591L458 336.433L472.771 341.356L467.9 365.712L415.556 349.355C408.128 343.474 398.786 340.553 389.331 341.155L357.318 331.155C355.523 330.59 353.859 329.67 352.425 328.451C350.992 327.231 349.817 325.737 348.972 324.055L321.988 270.087C326.353 262.772 328.658 254.413 328.661 245.895C328.663 237.377 326.361 229.017 322 221.7ZM282 112C282 120.487 278.629 128.626 272.627 134.627C266.626 140.629 258.487 144 250 144C241.513 144 233.374 140.629 227.373 134.627C221.371 128.626 218 120.487 218 112V81.811C237.005 94.6753 259.098 102.238 282 103.719V112ZM272.431 183.845L274 184.159V212L250 230L226 212V184.159L227.569 183.845C229.383 183.482 231.014 182.502 232.187 181.072C233.359 179.642 234 177.849 234 176V157.248C244.351 160.917 255.649 160.917 266 157.248V176C266 177.849 266.641 179.642 267.813 181.072C268.986 182.502 270.617 183.482 272.431 183.845ZM282 80V87.692C260.565 86.1191 240.025 78.4543 222.8 65.6C222.473 65.3586 222.128 65.1427 221.768 64.954C225.123 58.6549 230.488 53.6584 237.01 50.7594C243.532 47.8603 250.836 47.2251 257.76 48.9548C264.684 50.6845 270.831 54.6797 275.224 60.3051C279.616 65.9305 282.001 72.863 282 80ZM202 80V112C201.992 119.267 203.646 126.44 206.833 132.971C197.415 136.99 186.851 137.417 177.14 134.171C182.493 128.817 186.737 122.461 189.63 115.465C192.524 108.469 194.008 100.971 194 93.4V91.143C193.966 78.5108 196.437 65.9972 201.271 54.3266C206.105 42.6559 213.206 32.06 222.163 23.152C225.173 20.1413 228.918 17.9703 233.026 16.8544C237.134 15.7386 241.463 15.7167 245.582 16.791C249.701 17.8652 253.468 19.9983 256.508 22.9784C259.548 25.9585 261.756 29.6819 262.912 33.779C255.78 31.7814 248.282 31.4622 241.007 32.8465C233.731 34.2308 226.874 37.281 220.974 41.7581C215.074 46.2351 210.291 52.0175 206.999 58.6522C203.707 65.2868 201.996 72.5936 202 80ZM192.656 228.438C193.532 227.124 194 225.58 194 224V192.988L210 188.288V216C210 217.242 210.289 218.467 210.845 219.578C211.4 220.689 212.206 221.655 213.2 222.4L245.2 246.4C246.585 247.439 248.269 248 250 248C251.731 248 253.415 247.439 254.8 246.4L286.8 222.4C287.794 221.655 288.6 220.689 289.155 219.578C289.711 218.467 290 217.242 290 216V188.288L306 192.988V224C306 225.58 306.468 227.124 307.344 228.438C311.062 233.985 312.911 240.575 312.622 247.246C312.332 253.918 309.919 260.322 305.734 265.526L294.155 280H205.845L194.266 265.526C190.081 260.322 187.668 253.918 187.378 247.246C187.088 240.575 188.938 233.985 192.656 228.438ZM42 336.433L63.47 343.589C64.5881 343.962 65.7747 344.083 66.945 343.944C68.1154 343.805 69.2405 343.409 70.24 342.784L134.24 302.784C135.997 301.686 137.259 299.95 137.761 297.94L157.745 218C158.7 214.172 160.453 210.589 162.891 207.487C165.329 204.384 168.395 201.833 171.889 200L178 198.017V221.7C173.638 229.017 171.337 237.378 171.339 245.896C171.342 254.415 173.648 262.774 178.013 270.089L151.029 324.057C150.184 325.738 149.009 327.233 147.576 328.453C146.143 329.672 144.479 330.592 142.684 331.157L110.756 341.135C104.04 341.44 97.5255 343.52 91.875 347.162C91.435 347.222 32.101 365.714 32.101 365.714L27.229 341.358L42 336.433ZM492 188H466.79C465.686 183.548 463.823 179.319 461.282 175.5L450.656 159.561C449.925 158.465 448.936 157.567 447.775 156.946C446.613 156.324 445.317 155.999 444 155.999C442.683 155.999 441.387 156.324 440.225 156.946C439.064 157.567 438.075 158.465 437.344 159.561L426.718 175.5C424.177 179.319 422.314 183.548 421.21 188H396C394.636 188 393.295 188.349 392.104 189.013C390.913 189.677 389.912 190.634 389.195 191.794C388.478 192.954 388.07 194.278 388.008 195.641C387.947 197.003 388.235 198.358 388.845 199.578L398.211 218.311C400.853 223.639 404.934 228.121 409.993 231.247C415.052 234.374 420.886 236.02 426.833 236H461.167C467.114 236.02 472.948 234.374 478.007 231.247C483.066 228.121 487.147 223.639 489.789 218.311L499.155 199.578C499.765 198.358 500.053 197.003 499.992 195.641C499.93 194.278 499.522 192.954 498.805 191.794C498.088 190.634 497.087 189.677 495.896 189.013C494.705 188.349 493.364 188 492 188ZM412.521 211.155L408.944 204H420.351C421.087 209.678 423.047 215.128 426.095 219.974C423.25 219.854 420.489 218.973 418.102 217.421C415.714 215.87 413.787 213.706 412.521 211.155ZM452 198.745C452.009 201.898 451.392 205.022 450.185 207.935C448.978 210.848 447.206 213.493 444.97 215.716L444 216.686L443.029 215.715C440.793 213.492 439.021 210.847 437.814 207.934C436.608 205.021 435.991 201.898 436 198.745V197.689C435.996 192.95 437.398 188.317 440.03 184.376L444 178.422L447.97 184.376C450.602 188.317 452.004 192.95 452 197.689V198.745ZM475.479 211.155C474.213 213.706 472.286 215.87 469.898 217.421C467.51 218.973 464.75 219.854 461.905 219.974C464.953 215.128 466.913 209.678 467.649 204H479.056L475.479 211.155ZM104 116H78.79C77.6861 111.548 75.8228 107.319 73.282 103.5L62.656 87.562C61.9254 86.4663 60.9356 85.568 59.7745 84.9467C58.6134 84.3253 57.3169 84.0002 56 84.0002C54.6831 84.0002 53.3865 84.3253 52.2254 84.9467C51.0643 85.568 50.0746 86.4663 49.344 87.562L38.718 103.5C36.1772 107.319 34.3139 111.548 33.21 116H7.99997C6.63632 116 5.29531 116.349 4.10428 117.013C2.91326 117.677 1.91176 118.634 1.19488 119.794C0.478008 120.954 0.0695576 122.278 0.00831676 123.641C-0.0529241 125.003 0.235078 126.358 0.844973 127.578L10.211 146.311C12.8525 151.639 16.9342 156.121 21.9932 159.247C27.0521 162.374 32.8859 164.02 38.833 164H73.167C79.1141 164.02 84.9479 162.374 90.0068 159.247C95.0657 156.121 99.1474 151.639 101.789 146.311L111.155 127.578C111.765 126.358 112.053 125.003 111.992 123.641C111.93 122.278 111.522 120.954 110.805 119.794C110.088 118.634 109.087 117.677 107.896 117.013C106.705 116.349 105.364 116 104 116ZM24.521 139.155L20.944 132H32.351C33.088 137.678 35.0495 143.128 38.1 147.974C35.2542 147.855 32.4926 146.974 30.1038 145.422C27.7151 143.871 25.787 141.706 24.521 139.155ZM64 126.745C64.0087 129.898 63.3919 133.022 62.1852 135.935C60.9785 138.848 59.2059 141.493 56.97 143.716L56 144.686L55.029 143.715C52.7933 141.492 51.021 138.847 49.8144 135.934C48.6079 133.021 47.9912 129.898 48 126.745V125.689C47.9957 120.95 49.3983 116.317 52.03 112.376L56 106.422L59.97 112.376C62.6017 116.317 64.0043 120.95 64 125.689V126.745ZM87.479 139.155C86.2134 141.706 84.286 143.87 81.8983 145.421C79.5105 146.973 76.7499 147.854 73.905 147.974C76.9532 143.128 78.913 137.678 79.649 132H91.056L87.479 139.155Z" fill="url(#paint0_linear)"/>
<defs>
<linearGradient id="paint0_linear" x1="82.343" y1="443.656" x2="421.657" y2="104.343" gradientUnits="userSpaceOnUse">
<stop stop-color="#41DFD0"/>
<stop offset="1" stop-color="#EE83EF"/>
</linearGradient>
</defs>
</svg>
