<?xml version="1.0" encoding="UTF-8"?>
<svg width="344px" height="258px" viewBox="0 0 344 258" version="1.1" xmlns="http://www.w3.org/2000/svg" xmlns:xlink="http://www.w3.org/1999/xlink">
  <title>W42 Logo</title>
  <desc>Created by Nitish. * is ASCII for 42. Coincidentally, it is also answer to the Ultimate Question of Life, the Universe, and Everything; computed by Deep Thought over 7.5 million years in The Hitchhiker's Guide to the Galaxy by Douglas Adams.</desc>
    <g id="w42-logo">
      <g id="logo" transform="translate(7.52, 17.775)" fill="black">
        <polygon id="W" points="0 77.8712215 41.9921875 77.8712215 57.1289062 158.084192 79.1992188 77.8712215 121.09375 77.8712215 143.261719 158.084192 158.398438 77.8712215 200.195312 77.8712215 168.652344 221.451459 125.292969 221.451459 100.195312 131.052715 75.1953125 221.451459 31.8359375 221.451459"></polygon>
        <path d="M242.514648,0 L280.283203,0 L277.207031,25.8806805 C276.523434,32.1652039 275.099295,39.3066006 272.93457,47.3050849 C277.264019,45.1340678 280.112298,43.6486573 281.479492,42.8488088 C286.264672,40.2207354 289.910469,38.3354067 292.416992,37.1927661 L316.171875,25.8806805 L327.963867,62.0450752 L301.645508,67.5297227 C296.860328,68.4438352 289.739631,69.0722781 280.283203,69.4150703 C286.663443,74.442689 291.73338,79.0131829 295.493164,83.1266891 L313.266602,102.494351 L282.504883,125.632707 L269.858398,102.494351 C268.035473,99.1806929 265.073263,92.7248703 260.97168,83.1266891 C256.528298,93.6389828 253.566088,100.094805 252.084961,102.494351 L239.267578,125.632707 L207.651367,102.494351 L226.791992,83.1266891 C232.146837,77.7562782 237.38767,73.1857843 242.514648,69.4150703 C237.273737,68.958014 230.380902,67.9296529 221.835938,66.3299561 L195.34668,62.0450752 L207.651367,25.8806805 L231.40625,36.6785804 C233.912773,37.821221 240.122021,41.3633537 250.03418,47.3050849 C247.869455,37.7069038 246.502281,30.565507 245.932617,25.8806805 L242.514648,0 Z" id="*"></path>
      </g>
    </g>
</svg>