<svg width="18" height="16" viewBox="0 0 18 16" fill="none" xmlns="http://www.w3.org/2000/svg">
<path d="M15.9849 3.00188H13.2866L12.6438 1.2004C12.5994 1.07713 12.518 0.970572 12.4107 0.89529C12.3035 0.820008 12.1756 0.77967 12.0446 0.779785H5.95765C5.6898 0.779785 5.44974 0.948427 5.36046 1.2004L4.71565 3.00188H2.01739C1.14045 3.00188 0.430176 3.71216 0.430176 4.5891V13.6362C0.430176 14.5131 1.14045 15.2234 2.01739 15.2234H15.9849C16.8618 15.2234 17.5721 14.5131 17.5721 13.6362V4.5891C17.5721 3.71216 16.8618 3.00188 15.9849 3.00188ZM9.00113 12.049C7.24726 12.049 5.8267 10.6284 5.8267 8.87457C5.8267 7.1207 7.24726 5.70015 9.00113 5.70015C10.755 5.70015 12.1756 7.1207 12.1756 8.87457C12.1756 10.6284 10.755 12.049 9.00113 12.049ZM7.09647 8.87457C7.09647 9.37972 7.29714 9.86418 7.65433 10.2214C8.01153 10.5786 8.49598 10.7792 9.00113 10.7792C9.50627 10.7792 9.99073 10.5786 10.3479 10.2214C10.7051 9.86418 10.9058 9.37972 10.9058 8.87457C10.9058 8.36943 10.7051 7.88497 10.3479 7.52778C9.99073 7.17059 9.50627 6.96992 9.00113 6.96992C8.49598 6.96992 8.01153 7.17059 7.65433 7.52778C7.29714 7.88497 7.09647 8.36943 7.09647 8.87457Z" fill="white"/>
</svg>
