<svg width="40" height="41" viewBox="0 0 40 41" fill="none" xmlns="http://www.w3.org/2000/svg">
<ellipse cx="20" cy="20.8377" rx="20" ry="19.8841" fill="#4E6297"/>
<path d="M29 14.6922C29 13.2035 27.6788 11.8899 26.1813 11.8899H14.8186C13.3212 11.8899 12 13.2035 12 14.6922V25.9891C12 27.4778 13.3212 28.7914 14.8186 28.7914H17.3476C19.113 28.7914 20.544 27.3603 20.544 25.595V23.4556C20.544 22.8718 20.0708 22.3986 19.487 22.3986C18.9033 22.3986 18.4301 21.9254 18.4301 21.3416V20.6533C18.4301 20.0695 18.9033 19.5963 19.487 19.5963C20.0708 19.5963 20.544 19.123 20.544 18.5393V18.4578C20.544 16.5312 21.9534 14.8674 23.715 14.8674H24.604C25.3779 14.8674 26.0052 15.4947 26.0052 16.2685C26.0052 17.0424 25.3779 17.6697 24.604 17.6697H23.715C23.4508 17.6697 23.1865 17.9324 23.1865 18.4578C23.1865 19.0866 23.6962 19.5963 24.325 19.5963H24.604C25.3779 19.5963 26.0052 20.2236 26.0052 20.9974C26.0052 21.7713 25.3738 22.3986 24.6 22.3986C23.8216 22.3986 23.1865 23.0296 23.1865 23.8079V25.7966C23.1865 27.4506 24.5274 28.7914 26.1813 28.7914C27.6788 28.7914 29 27.4778 29 25.9891V14.6922Z" fill="white"/>
</svg>
