<svg width="40" height="41" viewBox="0 0 40 41" fill="none" xmlns="http://www.w3.org/2000/svg">
<ellipse cx="20" cy="20.8377" rx="20" ry="19.8841" fill="#C5331E"/>
<path d="M20.3417 19.2884V21.0173C20.3417 22.2359 21.3296 23.2238 22.5483 23.2238C24.0869 23.2238 25.0716 24.8118 23.8226 25.7103C22.891 26.3804 21.7385 26.7657 20.5 26.7657C17.4125 26.7657 14.9583 24.3258 14.9583 21.2561C14.9583 18.1865 17.4125 15.7466 20.5 15.7466C21.6875 15.7466 22.7958 16.1401 23.7458 16.7698C23.9216 16.9009 24.17 16.8669 24.3042 16.6935L26.1958 14.2487C26.3286 14.0771 26.2948 13.8299 26.1208 13.7002C24.4583 12.5196 22.5583 11.8899 20.5 11.8899C15.275 11.8899 11 16.1401 11 21.3349C11 26.5296 15.275 30.7798 20.5 30.7798C25.725 30.7798 30 26.5296 30 21.3349C30 20.2481 29.119 19.3672 28.0323 19.3672H20.4204C20.3769 19.3672 20.3417 19.3319 20.3417 19.2884Z" fill="white"/>
</svg>
