<svg width="414" height="261" viewBox="0 0 414 261" fill="none" xmlns="http://www.w3.org/2000/svg">
<g clip-path="url(#clip0)">
<path d="M13.3586 231.988L26.9685 193.387C27.1862 192.844 27.3347 192.276 27.4106 191.697L33.9971 141.376L47.6666 115.109H8.80214C8.80214 115.109 -0.846964 129.315 0.225159 144.86C1.24457 159.642 6.38347 180.336 6.88633 186.39C6.92685 186.878 6.58603 187.283 6.14455 187.494C-3.33604 192.038 0.225225 232.116 0.225108 237.599C0.493172 252.877 6.12264 251.536 9.87507 251.536C17.1119 251.536 9.49473 241.619 13.3586 231.988Z" fill="#DD9E86"/>
<path d="M39.7073 185.072C32.8649 190.084 38.3432 217.26 41.347 237.156C42.0122 241.561 44.2461 245.595 47.7159 248.39L50.1328 250.337C51.3118 251.287 52.7803 251.805 54.2944 251.805H57.8788C59.0917 251.805 59.7213 250.358 58.8948 249.471C55.7313 246.073 54.4759 241.318 55.5493 236.802L65.4315 195.222C66.0163 192.761 66.1291 190.212 65.764 187.71L55.1711 115.109H31.3164C31.3164 124.614 29.9227 146.712 33.9968 159.066L41.4395 181.634C41.8662 182.928 40.8064 184.267 39.7073 185.072Z" fill="#DD9E86"/>
<path d="M-1.48896 221.791L-0.153549 239.475H12.7277L17.9401 222.219C18.328 220.935 17.3669 219.641 16.0256 219.641H0.505361C-0.658549 219.641 -1.57661 220.631 -1.48896 221.791Z" fill="#ECA8FF"/>
<path d="M60.2712 221.873L58.2166 239.475H41.3013L37.9392 222.019C37.7016 220.786 38.6468 219.641 39.9031 219.641H58.2847C59.4812 219.641 60.4099 220.684 60.2712 221.873Z" fill="#ECA8FF"/>
<path d="M37.7491 115.109H53.8015C55.8114 115.109 57.5091 116.6 57.7681 118.593L62.8933 158.035C63.2043 160.429 61.3405 162.55 58.9267 162.55H35.1536L31.0483 150.681L37.7491 115.109Z" fill="#B48CFF"/>
<path fill-rule="evenodd" clip-rule="evenodd" d="M44.986 162.55H35.1537L33.4521 157.63L35.2856 152.575C37.194 147.314 44.986 148.683 44.986 154.28V162.55Z" fill="#9F6DFE"/>
<path d="M-1.73592 140.134L-1.24053 136.955C-0.0987387 129.629 2.64399 122.644 6.79244 116.498C7.37868 115.629 8.35809 115.109 9.40594 115.109H50.3469L43.2921 134.686C40.8559 141.447 39.2029 148.464 38.3656 155.601L37.7605 160.759C37.5241 162.774 35.8166 164.293 33.7878 164.293H1.90456C-0.234476 164.293 -1.99497 162.61 -2.09137 160.473L-2.43421 152.873C-2.62635 148.614 -2.39243 144.346 -1.73592 140.134Z" fill="#B48CFF"/>
<path d="M38.0176 255.918C38.0176 251.757 38.4496 247.608 39.3067 243.537L39.4417 242.896C40.3835 238.422 45.0947 235.843 49.3707 237.461L49.4805 237.503C50.33 237.824 51.2557 237.263 51.3639 236.361L51.3848 236.187C51.7102 233.475 54.0109 231.434 56.7424 231.434C59.1457 231.434 61.2594 233.024 61.9264 235.332L62.525 237.405C63.6259 241.216 66.5391 244.236 70.3077 245.474L77.544 247.852C80.8273 248.931 83.0467 251.996 83.0467 255.452V256.917C83.0467 259.127 81.2559 260.917 79.0467 260.917H41.8307C39.7247 260.917 38.0176 259.21 38.0176 257.104V255.918Z" fill="#F4B510"/>
<path d="M-3.79541 249.66L-2.64235 238.804C-2.46406 237.125 -0.368422 236.469 0.735825 237.745C0.904177 237.94 1.21228 237.919 1.3519 237.702L3.36321 234.588C4.63285 232.622 6.81338 231.434 9.15379 231.434C12.2178 231.434 14.914 233.457 15.7714 236.398L16.7028 239.594C17.4405 242.124 18.9909 244.342 21.1146 245.903L22.9632 247.262C25.0134 248.77 26.224 251.163 26.224 253.708V256.917C26.224 259.127 24.4332 260.917 22.224 260.917H0.204594C-2.00455 260.917 -3.79541 259.127 -3.79541 256.917V249.66Z" fill="#F4B510"/>
<path d="M38.0176 255.557H79.2943C80.1825 255.557 80.9025 256.277 80.9025 257.165C80.9025 258.053 80.1825 258.773 79.2943 258.773H38.0176V255.557Z" fill="#389810"/>
<path d="M-3.79541 255.557H4.78157C5.66975 255.557 6.38976 256.277 6.38976 257.165C6.38976 258.053 5.66975 258.773 4.78157 258.773H-3.79541V255.557Z" fill="#389810"/>
<path d="M66.5051 242.691L61.604 245.908L68.0367 243.764L64.6672 247.516" stroke="#E379F8" stroke-width="1.07212" stroke-linejoin="bevel"/>
<path d="M17.1111 242.691L7.72998 244.836H18.4512L11.2144 246.98" stroke="#E379F8" stroke-width="1.07212" stroke-linejoin="bevel"/>
</g>
<path d="M67.4866 61.7902C68.8301 59.5406 69.215 56.808 68.3298 54.3385L67.4807 51.9695C67.2952 51.4519 67.244 50.8953 67.3322 50.3524L68.333 44.1892C68.4407 43.5262 68.7511 42.9136 69.221 42.4366L71.6957 39.9242C72.2871 39.3238 73.3041 39.6121 73.4976 40.4348L73.6568 41.1121C73.8529 41.946 73.7117 42.8239 73.2644 43.5529L72.6395 44.5711C72.5441 44.7266 72.4717 44.8953 72.4247 45.0719L72.3323 45.4189C72.1167 46.2291 72.5947 47.062 73.4 47.2793C74.0636 47.4583 74.7634 47.1639 75.1028 46.5632L77.2707 42.7258C77.5322 42.2629 77.6759 41.742 77.6891 41.2097L77.8422 34.9892C77.8561 34.425 78.297 33.9656 78.8569 33.9318C79.2822 33.9062 79.6827 34.1346 79.8796 34.5148L81.3034 37.2648C81.4787 37.6035 81.7142 37.9071 81.9982 38.1605C82.5854 38.6844 82.9541 39.4124 83.0302 40.1982L83.0632 40.5384C83.1089 41.0109 83.3011 41.4569 83.6126 41.8135L83.8595 42.0962C84.2019 42.4881 84.327 43.0263 84.1929 43.5302L84.1653 43.6337C84.0564 44.0429 84.1453 44.48 84.4054 44.8133C84.6655 45.1466 84.7544 45.5836 84.6455 45.9929L84.1309 47.9266C84.037 48.2795 83.8627 48.6056 83.6218 48.8789C83.342 49.1964 83.1524 49.5862 83.0737 50.0031C82.258 54.3242 80.9944 58.5704 79.3113 62.6294C61.3424 111.057 48.7505 93.1623 67.4866 61.7902Z" fill="#DD9E86"/>
<path d="M72.4376 42.0193C72.0424 42.6117 71.4018 42.8783 71.0069 42.6148C70.612 42.3513 70.6122 41.6574 71.0075 41.065C71.4028 40.4727 72.0433 40.2061 72.4382 40.4696C72.8332 40.7331 72.8329 41.4269 72.4376 42.0193Z" fill="#FAC798"/>
<path d="M41.5694 91.2225L53.4307 104.725C56.715 108.463 62.5294 108.285 65.2282 104.104C67.5164 100.56 70.1424 96.0792 72.3251 91.2541C76.4339 82.1716 78.7979 70.123 79.558 65.8067C79.7242 64.8625 79.1772 63.9509 78.2738 63.6297L69.3677 60.4631C68.4453 60.1351 67.4211 60.523 66.9474 61.3797L59.7458 74.4039C58.0355 77.497 53.4477 77.0143 52.4186 73.6329L51.4187 70.3477C40.4158 69.9986 34.304 82.9521 41.5694 91.2225Z" fill="#F97600"/>
<path fill-rule="evenodd" clip-rule="evenodd" d="M49.9818 70.3784C54.0959 76.0241 56.5116 82.9703 56.5116 90.45C56.5116 93.8031 58.4348 100.313 60.866 107.203C58.2906 107.803 55.4042 106.971 53.431 104.725L41.5697 91.2225C34.6272 83.3197 39.8993 71.1407 49.9818 70.3784Z" fill="#DE5000"/>
<path d="M18.7189 59.8945H35.0688L55.1711 115.109H9.06982L11.4316 106.8L18.7189 59.8945Z" fill="#DD9E86"/>
<path d="M51.2421 68.4402C52.4796 72.6492 53.7136 77.7216 53.8314 82.9452C53.9525 88.3145 53.5594 93.5756 52.9982 98.4909C55.649 102.984 56.7674 107.836 57.2394 111.13C57.5526 113.317 55.792 115.109 53.5829 115.109H9.0522C6.84306 115.109 5.04177 113.312 5.31516 111.12C6.12874 104.596 8.53329 98.4909 8.53329 98.4909L8.5333 59.8945L21.1316 58.0183C20.1403 60.6619 20.6723 63.6359 22.5186 65.7718L32.0606 76.8106C32.5741 77.4045 33.5351 77.2381 33.8189 76.5061C35.8027 71.3883 35.4429 65.6582 32.8347 60.8288L31.3168 58.0183C36.481 58.0183 49.7855 63.4858 51.2421 68.4402Z" fill="#F97600"/>
<path fill-rule="evenodd" clip-rule="evenodd" d="M6.92578 103.401C7.7496 100.48 8.53305 98.4909 8.53305 98.4909L8.53305 71.4817C10.0667 72.1179 11.4882 73.6564 12.6116 75.9406C14.1195 79.0068 14.9667 83.1654 14.9667 87.5017C14.9667 91.8379 14.1195 95.9966 12.6116 99.0628C11.1036 102.129 9.05837 103.852 6.92578 103.852L6.92578 103.401Z" fill="#DE5000"/>
<path d="M-11.6896 100.519L1.32877 64.9358C2.43647 61.9081 5.31726 59.8945 8.54125 59.8945C14.225 59.8945 17.9548 65.8565 15.5009 70.9833C11.2398 79.8857 5.3664 92.3712 1.45876 101.552C0.900728 102.863 1.4491 104.357 2.58884 105.212C14.0618 113.82 21.1915 138.385 22.2033 142.18C23.1638 145.782 26.4903 154.331 27.1729 156.073C27.2556 156.283 27.3002 156.501 27.3086 156.728L27.5396 162.966C27.5549 163.377 27.3676 163.77 27.0384 164.017C26.2934 164.575 25.2208 164.157 25.0513 163.241L24.1453 158.349C24.1018 158.114 24.0166 157.889 23.8937 157.684L22.2877 155.007C22.0011 154.53 21.2659 154.808 21.3674 155.356L22.1346 159.499C22.18 159.744 22.1791 159.996 22.132 160.241L20.9981 166.137C20.9148 166.57 20.604 166.925 20.1852 167.065C19.3595 167.34 18.5191 166.688 18.5811 165.819L18.9607 160.505C18.9781 160.262 18.951 160.019 18.8809 159.786L17.993 156.837C17.833 156.306 17.0556 156.392 17.0156 156.945L16.8771 158.858C16.8545 159.171 16.7587 159.474 16.5973 159.743L13.2903 165.255C13.0108 165.72 12.4645 165.955 11.9342 165.837C11.1497 165.663 10.7257 164.81 11.0605 164.079L13.2119 159.385C13.3086 159.174 13.3633 158.947 13.3729 158.715L13.4192 157.605C13.438 157.152 12.78 157.076 12.6953 157.521C12.6068 157.986 12.2988 158.379 11.8687 158.576L7.42273 160.614C6.7464 160.924 5.95476 160.543 5.77432 159.821C5.65961 159.363 5.82785 158.879 6.20275 158.591L8.36953 156.924C8.8156 156.581 9.09646 156.066 9.1432 155.505L9.3048 153.566C9.32603 153.311 9.24888 153.058 9.08923 152.858C7.32178 150.649 7.1873 147.55 8.7567 145.196L8.80179 145.128L-11.2569 106.992C-12.3087 104.992 -12.4658 102.641 -11.6896 100.519Z" fill="#DD9E86"/>
<path d="M27.296 162.818C27.296 163.41 26.936 163.89 26.4919 163.89C26.0479 163.89 25.6879 163.41 25.6879 162.818C25.6879 162.226 26.0479 161.746 26.4919 161.746C26.936 161.746 27.296 162.226 27.296 162.818Z" fill="#FAC798"/>
<path d="M20.8633 165.499C20.8633 166.091 20.5033 166.571 20.0592 166.571C19.6151 166.571 19.2551 166.091 19.2551 165.499C19.2551 164.906 19.6151 164.426 20.0592 164.426C20.5033 164.426 20.8633 164.906 20.8633 165.499Z" fill="#FAC798"/>
<path d="M13.1915 164.852C12.9206 165.396 12.4158 165.645 12.0639 165.41C11.712 165.175 11.6463 164.544 11.9172 164.001C12.1881 163.457 12.6929 163.208 13.0448 163.443C13.3967 163.678 13.4624 164.309 13.1915 164.852Z" fill="#FAC798"/>
<path d="M7.61383 160.063C7.02777 160.25 6.4846 160.075 6.40062 159.672C6.31665 159.269 6.72366 158.791 7.30971 158.605C7.89577 158.418 8.43894 158.593 8.52292 158.996C8.6069 159.398 8.19988 159.876 7.61383 160.063Z" fill="#FAC798"/>
<path d="M-11.7643 100.723L1.32877 64.9358C2.43647 61.9081 5.31726 59.8945 8.54125 59.8945C14.225 59.8945 17.9548 65.8565 15.5009 70.9833C11.2398 79.8857 5.3664 92.3712 1.45876 101.552C0.900728 102.863 1.44767 104.358 2.59018 105.209C12.9416 112.923 20.6833 133.67 22.9598 140.775C23.3016 141.841 22.6505 142.936 21.5631 143.203L8.78607 146.345C7.86016 146.573 6.90228 146.115 6.49758 145.252L-11.4949 106.868C-12.3998 104.937 -12.4967 102.726 -11.7643 100.723Z" fill="#F97600"/>
<circle cx="18.7191" cy="58.8224" r="1.07212" fill="#DE5000"/>
<circle cx="18.183" cy="60.9667" r="1.07212" fill="#389810"/>
<circle cx="17.6468" cy="63.1109" r="1.07212" fill="#FFB3DA"/>
<circle cx="17.6468" cy="65.2552" r="1.07212" fill="#FECE00"/>
<circle cx="17.6468" cy="67.3993" r="1.07212" fill="#FECE00"/>
<circle cx="17.6468" cy="69.5436" r="1.07212" fill="#FECE00"/>
<circle cx="19.2552" cy="77.0484" r="1.07212" fill="#6CBBD7"/>
<circle cx="19.7914" cy="80.2647" r="1.07212" fill="#F23116"/>
<circle cx="23.0077" cy="87.7696" r="1.07212" fill="#FFB3DA"/>
<circle cx="24.6161" cy="89.3778" r="1.07212" fill="#FECE00"/>
<circle cx="27.0282" cy="91.7902" r="0.804092" fill="#389810"/>
<circle cx="28.9042" cy="92.5943" r="1.07212" fill="#FECE00"/>
<circle cx="31.0487" cy="92.5943" r="1.07212" fill="#6CBBD7"/>
<circle cx="33.1927" cy="92.5943" r="1.07212" fill="#FFB3DA"/>
<circle cx="35.0692" cy="92.3263" r="0.804092" fill="#F23116"/>
<circle cx="41.2337" cy="87.2337" r="1.07212" fill="#6CBBD7"/>
<circle cx="41.7699" cy="85.0895" r="1.07212" fill="#F23116"/>
<circle cx="42.306" cy="82.9452" r="1.07212" fill="#FECE00"/>
<circle cx="42.306" cy="75.4403" r="1.07212" fill="#1570FF"/>
<circle cx="40.1615" cy="65.7911" r="1.07212" fill="#6CBBD7"/>
<circle cx="39.6253" cy="63.6468" r="1.07212" fill="#FECE00"/>
<circle cx="38.5536" cy="61.5028" r="1.07212" fill="#FECE00"/>
<circle cx="37.4813" cy="59.3585" r="1.07212" fill="#389810"/>
<circle cx="38.0173" cy="90.986" r="2.14425" fill="#FECE00"/>
<circle cx="18.719" cy="73.832" r="2.14425" fill="#389810"/>
<circle cx="42.3059" cy="78.6567" r="2.14425" fill="#FFB3DA"/>
<path d="M43.2545 70.6523C43.6494 72.4068 43.0648 74.0528 41.9487 74.3288C40.8326 74.6047 39.6077 73.4061 39.2127 71.6515C38.8178 69.897 39.4024 68.251 40.5185 67.9751C41.6346 67.6991 42.8595 68.8978 43.2545 70.6523Z" fill="#F23116"/>
<ellipse cx="20.8632" cy="84.2853" rx="2.14425" ry="2.94834" transform="rotate(-10.8539 20.8632 84.2853)" fill="#6CBBD7"/>
<ellipse cx="18.1829" cy="71.1518" rx="1.60818" ry="0.536061" fill="#1570FF"/>
<path d="M21.3921 78.307C21.4766 78.5315 20.8284 78.8699 19.9443 79.063C19.0602 79.2561 18.275 79.2307 18.1905 79.0063C18.106 78.7819 18.7542 78.4434 19.6383 78.2503C20.5223 78.0572 21.3075 78.0826 21.3921 78.307Z" fill="#FFB3DA"/>
<ellipse cx="42.3059" cy="81.3371" rx="1.60818" ry="0.536061" fill="#389810"/>
<ellipse cx="40.6975" cy="67.3993" rx="1.60818" ry="0.536061" fill="#FFB3DA"/>
<path d="M27.213 89.4609C27.4938 89.7417 27.0386 90.6522 26.1962 91.4945C25.3538 92.3369 24.4433 92.7921 24.1625 92.5114C23.8817 92.2306 24.337 91.3201 25.1794 90.4777C26.0217 89.6353 26.9322 89.1801 27.213 89.4609Z" fill="#6CBBD7"/>
<path d="M38.6366 87.3166C38.3558 87.5974 38.8111 88.5079 39.6534 89.3502C40.4958 90.1926 41.4063 90.6479 41.6871 90.3671C41.9679 90.0863 41.5126 89.1758 40.6702 88.3334C39.8279 87.491 38.9174 87.0358 38.6366 87.3166Z" fill="#389810"/>
<path fill-rule="evenodd" clip-rule="evenodd" d="M24.8838 3.60815C19.7028 3.60815 15.5027 7.8082 15.5027 12.9892C15.5027 14.3344 15.7859 15.6135 16.2958 16.7701C16.6523 17.5788 16.1159 18.6179 15.2321 18.6179H14.9667C4.30856 18.6179 -4.33154 27.258 -4.33154 37.9161V40.5964C-4.33154 51.2545 4.30857 59.8946 14.9667 59.8946H43.914C54.5721 59.8946 63.2122 51.2545 63.2122 40.5964V37.9161C63.2122 27.258 54.5721 18.6179 43.914 18.6179C43.1416 18.6179 42.6762 17.7135 43.0081 17.0161C43.5889 15.7959 43.914 14.4305 43.914 12.9892C43.914 7.8082 39.7139 3.60815 34.5329 3.60815H24.8838Z" fill="#A6735B"/>
<path d="M45.5224 50.2455C45.5224 51.9308 45.066 53.4322 44.3563 54.4968C43.6442 55.565 42.7192 56.1422 41.7699 56.1422C40.8207 56.1422 39.8957 55.565 39.1835 54.4968C38.4739 53.4322 38.0175 51.9308 38.0175 50.2455C38.0175 48.5602 38.4739 47.0587 39.1835 45.9942C39.8957 44.9259 40.8207 44.3488 41.7699 44.3488C42.7192 44.3488 43.6442 44.9259 44.3563 45.9942C45.066 47.0587 45.5224 48.5602 45.5224 50.2455Z" stroke="#F4B510" stroke-width="1.07212"/>
<path fill-rule="evenodd" clip-rule="evenodd" d="M22.777 34.1638H24.0798C27.6667 34.1638 30.9545 32.3307 32.857 29.3887C34.5027 32.2993 37.6107 34.1638 41.0457 34.1638H41.5837C41.9067 34.9296 42.1306 35.77 42.2364 36.6849C42.3303 37.4967 42.4303 38.3138 42.7394 39.0702C43.0705 39.8803 43.378 40.6329 43.378 41.6687C43.378 44.353 42.7067 46.8531 41.519 48.9494C41.1507 49.5995 40.8083 50.2768 40.4648 50.9564L40.4648 50.9565C39.8377 52.1969 39.2068 53.4451 38.4071 54.5497C37.2384 56.1642 35.3383 57.2145 33.1929 57.2145C32.9402 57.2145 32.6909 57.1999 32.4458 57.1716L33.7455 62.0101C34.5483 64.999 32.2964 67.9357 29.2015 67.9357C24.0044 67.9357 19.7913 63.7226 19.7913 58.5256V47.0871C19.7055 46.8809 19.6245 46.6719 19.5483 46.4604C19.2226 45.5554 18.4033 44.8851 17.4415 44.8851C16.0748 44.8851 14.9668 43.7771 14.9668 42.4104C14.9668 39.8726 18.3311 38.9792 19.5901 41.1826C19.6085 41.2147 19.6524 41.2207 19.6777 41.1935C20.2942 40.5304 20.7694 39.236 21.3285 37.7129C21.7371 36.5997 22.1906 35.3643 22.777 34.1638Z" fill="#DD9E86"/>
<path d="M20.8632 50.2455C20.8632 51.9308 20.4068 53.4322 19.6971 54.4968C18.985 55.565 18.06 56.1422 17.1108 56.1422C16.1615 56.1422 15.2365 55.565 14.5244 54.4968C13.8147 53.4322 13.3583 51.9308 13.3583 50.2455C13.3583 48.5602 13.8147 47.0587 14.5244 45.9942C15.2365 44.9259 16.1615 44.3488 17.1108 44.3488C18.06 44.3488 18.985 44.9259 19.6971 45.9942C20.4068 47.0587 20.8632 48.5602 20.8632 50.2455Z" stroke="#F4B510" stroke-width="1.07212"/>
<path d="M33.7285 38.4521L34.1031 41.0745C34.2099 41.8216 34.4525 42.5428 34.819 43.2025L35.6432 44.6861C36.2272 45.7373 35.4671 47.0291 34.2646 47.0291V47.0291" stroke="#1A2027" stroke-width="1.07212"/>
<path d="M37.481 44.8848C37.481 45.4769 37.001 45.9569 36.4088 45.9569L35.8728 45.9569" stroke="#1A2027" stroke-width="1.07212"/>
<path d="M32.6566 45.9569C32.0645 45.9569 31.5845 45.4769 31.5845 44.8848" stroke="#1A2027" stroke-width="1.07212"/>
<path d="M36.9427 49.7532C36.8998 49.3611 35.1296 49.2259 34.6914 50.1665C34.1753 49.2259 31.2562 48.8001 29.9766 49.5774C31.4833 50.9605 31.3125 52.39 34.4616 52.39C35.6827 52.39 36.2005 51.2156 36.3296 50.5708C36.4953 50.4035 36.9856 50.1454 36.9427 49.7532Z" fill="#C61800"/>
<path d="M30.5126 37.9161C29.3284 36.4866 27.4084 36.4866 26.2241 37.9161" stroke="#1A2027" stroke-width="1.07212"/>
<path d="M30.5126 39.5243C29.3284 38.0948 27.4084 38.0948 26.2241 39.5243C27.9395 41.4541 29.7979 40.3284 30.5126 39.5243Z" fill="white"/>
<path d="M41.2338 39.5243C40.0496 38.0948 38.1295 38.0948 36.9453 39.5243C38.6607 41.4541 40.5191 40.3284 41.2338 39.5243Z" fill="white"/>
<path d="M41.2338 37.9161C40.0496 36.4866 38.1295 36.4866 36.9453 37.9161" stroke="#1A2027" stroke-width="1.07212"/>
<path d="M40.6973 41.1325C39.8091 40.4177 38.3691 40.4177 37.481 41.1325" stroke="#1A2027" stroke-width="1.07212"/>
<path d="M29.9761 41.1325C29.088 40.4177 27.6479 40.4177 26.7598 41.1325" stroke="#1A2027" stroke-width="1.07212"/>
<circle cx="28.368" cy="39.5243" r="1.07212" fill="#1A2027"/>
<circle cx="39.0892" cy="39.5243" r="1.07212" fill="#1A2027"/>
<g clip-path="url(#clip1)">
<path d="M402.894 237.599L391.368 195.518L380.379 141.376L366.71 115.109H405.574C405.574 115.109 415.223 129.315 414.151 144.86C413.165 159.152 410.141 182.144 409.659 189.425C409.599 190.336 410.245 191.087 410.986 191.621C419.497 197.751 414.151 237.599 414.151 237.599H402.894Z" fill="#B6704F"/>
<path d="M346.352 182.688C346.41 178.166 346.728 164.896 348.484 156.118C350.628 145.396 359.205 115.109 359.205 115.109H383.06C383.06 124.614 382.041 146.712 377.967 159.066L370.524 181.634C370.097 182.928 371.112 184.244 372.356 184.801C382.852 189.506 374.563 223.84 372.07 244.032H361.081L346.718 185.794C346.466 184.776 346.339 183.737 346.352 182.688Z" fill="#B6704F"/>
<path d="M352.165 248.675L353.604 247.388C357.322 244.065 358.844 238.926 357.533 234.115H374.373L374.208 235.324C373.636 239.524 375.464 243.67 376.481 247.784C377.831 253.247 375.638 258.947 373.304 260.918H365.819L366.354 256.856L361.209 260.255C360.555 260.687 359.788 260.918 359.004 260.918H336.992C335.76 260.918 334.865 259.746 335.189 258.557C336.107 255.184 338.831 252.606 342.249 251.874L348.51 250.532C349.869 250.241 351.128 249.601 352.165 248.675Z" fill="#F23116"/>
<path d="M416.969 231.434H399.813C399.813 240.073 397.252 248.888 398.644 257.414C398.867 258.779 399.234 259.993 399.813 260.917H419.464C421.333 256.148 414.276 243.584 414.276 241.908C414.276 239.864 416.969 231.434 416.969 231.434Z" fill="#F23116"/>
<path d="M376.614 237.798C377.611 231.194 381.183 206.887 381.183 197.662C381.183 178.466 378.815 188.894 385.74 167.643L381.183 115.109H361.06C358.851 115.109 357.06 116.9 357.06 119.109V121.498C357.06 122.228 356.859 122.94 356.495 123.573C349.818 135.185 344.999 153.917 344.999 177.56C344.999 208.992 352.28 232.537 354.193 238.178C354.46 238.968 355.2 239.475 356.034 239.475H374.645C375.631 239.475 376.467 238.774 376.614 237.798Z" fill="#1570FF"/>
<path fill-rule="evenodd" clip-rule="evenodd" d="M381.155 194.188C381.046 187.8 380.667 185.744 380.835 183.733C381.046 181.189 382.131 178.717 385.74 167.643L385.1 160.268C383.449 152.098 381.456 143.995 379.575 137.624C374.572 147.541 366.334 176.756 380.915 193.91C380.996 194.005 381.076 194.098 381.155 194.188Z" fill="#105ACD"/>
<path d="M419.289 237.903C420.719 230.417 426.337 197.234 421.388 160.942C419.543 147.416 417.895 132.081 411.419 122.349C410.947 121.639 410.667 120.813 410.667 119.96V119.109C410.667 116.9 408.876 115.109 406.667 115.109H375.523C374.376 115.109 373.464 116.058 373.538 117.203C374.109 126.146 376.663 161.377 382.255 176.756C388.688 194.446 394.585 215.62 394.585 215.62L396.316 237.632C396.398 238.672 397.264 239.475 398.308 239.475H417.364C418.306 239.475 419.113 238.829 419.289 237.903Z" fill="#1570FF"/>
</g>
<path d="M346.889 66.0788C345.546 63.8292 345.161 61.0966 346.046 58.627L346.895 56.2581C347.081 55.7405 347.132 55.1839 347.044 54.6409L346.043 48.4777C345.935 47.8148 345.625 47.2022 345.155 46.7251L342.68 44.2128C342.089 43.6124 341.072 43.9006 340.878 44.7234L340.719 45.4006C340.523 46.2345 340.664 47.1125 341.112 47.8414L341.736 48.8597C341.832 49.0152 341.904 49.1839 341.951 49.3604L342.044 49.7075C342.259 50.5177 341.781 51.3506 340.976 51.5678C340.312 51.7468 339.613 51.4525 339.273 50.8517L337.105 47.0144C336.844 46.5514 336.7 46.0306 336.687 45.4982L336.534 39.2778C336.52 38.7136 336.079 38.2541 335.519 38.2204C335.094 38.1948 334.693 38.4231 334.496 38.8033L333.073 41.5534C332.897 41.8921 332.662 42.1956 332.378 42.449C331.791 42.973 331.422 43.7009 331.346 44.4868L331.313 44.827C331.267 45.2995 331.075 45.7455 330.763 46.1021L330.516 46.3847C330.174 46.7767 330.049 47.3148 330.183 47.8188L330.211 47.9223C330.32 48.3315 330.231 48.7685 329.971 49.1019C329.71 49.4352 329.622 49.8722 329.73 50.2815L330.245 52.2151C330.339 52.5681 330.513 52.8941 330.754 53.1675C331.034 53.4849 331.224 53.8748 331.302 54.2916C332.118 58.6128 333.382 62.859 335.065 66.918C353.034 115.346 365.626 97.4508 346.889 66.0788Z" fill="#B6704F"/>
<path d="M341.938 46.3076C342.334 46.9 342.974 47.1666 343.369 46.9031C343.764 46.6396 343.764 45.9457 343.368 45.3534C342.973 44.761 342.333 44.4944 341.938 44.7579C341.543 45.0214 341.543 45.7152 341.938 46.3076Z" fill="#FAC798"/>
<path d="M375.019 62.0388L377.141 63.502C385.025 68.939 386.399 80.0384 380.078 87.2338L361.948 107.871C358.352 111.965 351.804 111.344 349.042 106.647L333.898 80.893C332.537 78.5783 332.88 75.6413 334.737 73.7019L346.072 61.8655C347.076 60.8161 348.83 61.1547 349.372 62.5029L354.972 76.4342C356.38 79.9371 361.41 79.7187 362.51 76.107L362.957 74.6363L375.019 62.0388Z" fill="#B48CFF"/>
<path fill-rule="evenodd" clip-rule="evenodd" d="M360.327 78.5989C359.09 80.566 358.015 82.6588 357.121 84.8629L348.595 105.887L349.042 106.646C351.804 111.344 358.352 111.965 361.948 107.871L380.078 87.2337C386.351 80.0925 385.045 69.1059 377.318 63.6257C371.688 66.2461 366.713 70.1557 362.827 75.0629L362.51 76.1069C362.137 77.3328 361.311 78.1677 360.327 78.5989Z" fill="#9F6DFE"/>
<path d="M405.842 59.8945L398.153 59.8435C379.11 59.7173 362.618 73.0342 358.73 91.677L355.844 105.517C354.811 110.472 358.581 115.129 363.642 115.15L412.43 115.356C414.973 115.367 416.88 113.033 416.363 110.542L405.842 59.8945Z" fill="#B48CFF"/>
<path d="M401.616 134.85L412.893 125.294L423.025 134.548L423.03 134.629C423.212 137.453 421.546 140.069 418.911 141.099C418.673 141.192 418.479 141.373 418.37 141.604L417.54 143.364C417.301 143.873 417.286 144.46 417.501 144.98L418.544 147.507C418.725 147.944 418.629 148.447 418.3 148.787C417.783 149.321 416.907 149.255 416.476 148.648L413.645 144.661C413.371 144.275 413.301 143.781 413.456 143.334C413.605 142.906 412.997 142.643 412.788 143.044L412.273 144.029C412.165 144.234 412.099 144.459 412.077 144.69L411.593 149.831C411.518 150.631 410.724 151.158 409.957 150.917C409.439 150.753 409.083 150.277 409.074 149.734L408.966 143.307C408.961 142.993 409.029 142.683 409.166 142.401L410.003 140.675C410.245 140.176 409.614 139.713 409.21 140.093L406.967 142.202C406.79 142.369 406.645 142.567 406.538 142.785L404.21 147.578C403.829 148.36 402.775 148.505 402.198 147.854C401.905 147.524 401.813 147.061 401.958 146.644L403.924 140.971C404.006 140.735 404.131 140.517 404.293 140.327L407.029 137.123C407.39 136.699 406.893 136.09 406.406 136.361L403.677 137.876C403.468 137.992 403.281 138.144 403.126 138.326L399.896 142.109C399.291 142.818 398.153 142.644 397.787 141.788C397.625 141.409 397.66 140.976 397.878 140.627L401.215 135.312C401.324 135.139 401.459 134.983 401.616 134.85Z" fill="#B6704F"/>
<path d="M398.163 140.621C397.867 141.134 397.939 141.73 398.324 141.952C398.708 142.174 399.26 141.938 399.556 141.425C399.852 140.912 399.78 140.317 399.396 140.095C399.011 139.873 398.459 140.108 398.163 140.621Z" fill="#FAC798"/>
<path d="M402.394 146.159C402.098 146.671 402.17 147.267 402.554 147.489C402.939 147.711 403.491 147.476 403.787 146.963C404.083 146.45 404.011 145.854 403.627 145.632C403.242 145.41 402.69 145.646 402.394 146.159Z" fill="#FAC798"/>
<path d="M409.361 149.435C409.324 150.041 409.637 150.509 410.059 150.482C410.481 150.454 410.854 149.94 410.891 149.334C410.928 148.729 410.615 148.26 410.193 148.288C409.771 148.315 409.398 148.829 409.361 149.435Z" fill="#FAC798"/>
<path d="M416.586 148.076C417 148.531 417.558 148.651 417.832 148.344C418.106 148.037 417.993 147.42 417.579 146.965C417.165 146.51 416.607 146.39 416.333 146.697C416.059 147.004 416.172 147.621 416.586 148.076Z" fill="#FAC798"/>
<path fill-rule="evenodd" clip-rule="evenodd" d="M402.845 115.312L413.199 115.356C414.809 115.363 416.164 114.43 416.811 113.113L414.117 98.759L409.176 72.4429C405.72 75.0884 402.926 80.3982 401.408 87.2042C399.89 94.0101 399.774 101.755 401.084 108.734C401.527 111.096 402.122 113.305 402.845 115.312Z" fill="#9F6DFE"/>
<path d="M395.121 59.8945H411.109C416.221 59.8945 421.025 62.3368 424.037 66.4668L438.145 85.8122C448.069 99.4209 448.572 117.741 439.408 131.873C435.472 137.943 427.463 139.849 421.214 136.205L413.304 131.59C409.472 129.355 407.84 124.66 409.46 120.53L415.144 106.038C416.553 102.445 416.292 98.4115 414.433 95.0295L395.121 59.8945Z" fill="#B48CFF"/>
<path d="M367.412 28.8178C367.264 29.852 366.224 31.5142 368.813 34.0534C371.403 36.5926 388.881 47.3387 390.444 47.0223C398.767 45.3373 399.512 34.2975 396.83 32.8201C400.463 30.413 396.83 25.1172 393.315 27.0029C393.315 18.9378 380.454 20.5075 372.869 18.9378C365.284 17.3681 365.839 21.9849 365.192 23.9239C364.544 25.863 367.597 27.5251 367.412 28.8178Z" fill="#7B371F"/>
<path fill-rule="evenodd" clip-rule="evenodd" d="M372.857 48.9492C371.669 46.8529 370.998 44.3529 370.998 41.6686C370.998 40.6328 371.306 39.8802 371.637 39.0701C371.946 38.3136 372.056 37.4977 372.104 36.6819C372.42 31.2882 374.937 29.9844 380.111 29.9844H385.258C387.004 29.9844 388.42 31.4 388.42 33.1462V34.8338C388.42 35.6479 389.08 36.3079 389.894 36.3079C390.708 36.3079 391.368 36.968 391.368 37.7821V39.6818C391.368 40.779 392.258 41.6686 393.355 41.6686H393.948C394.294 41.6686 394.614 41.483 394.786 41.1824C396.045 38.9791 399.409 39.8725 399.409 42.4102C399.409 43.777 398.301 44.8849 396.934 44.8849C395.973 44.8849 395.153 45.5553 394.828 46.4602C394.751 46.6718 394.67 46.8808 394.585 47.087V58.5254C394.585 63.7225 390.372 67.9356 385.174 67.9356C382.08 67.9356 379.828 64.9989 380.63 62.0099L381.93 57.1714C381.685 57.1998 381.436 57.2143 381.183 57.2143C379.038 57.2143 377.138 56.1641 375.969 54.5496C375.169 53.4449 374.538 52.1967 373.911 50.9563C373.568 50.2767 373.225 49.5993 372.857 48.9492Z" fill="#B6704F"/>
<path d="M380.647 38.4521L380.273 41.0745C380.166 41.8216 379.924 42.5428 379.557 43.2025L378.733 44.6861C378.149 45.7373 378.909 47.0291 380.111 47.0291V47.0291" stroke="#1A2027" stroke-width="1.07212"/>
<path d="M376.895 44.8848C376.895 45.4769 377.375 45.9569 377.967 45.9569L378.503 45.9569" stroke="#1A2027" stroke-width="1.07212"/>
<path d="M381.719 45.9569C382.311 45.9569 382.792 45.4769 382.792 44.8848" stroke="#1A2027" stroke-width="1.07212"/>
<path d="M378.503 49.9462L384.305 48.6375C384.305 48.6375 385.099 51.3652 382.081 52.2377C379.063 53.1102 378.503 49.9462 378.503 49.9462Z" fill="#C61800"/>
<path d="M383.863 37.9161C385.048 36.4866 386.968 36.4866 388.152 37.9161" stroke="#1A2027" stroke-width="1.07212"/>
<path d="M383.863 39.5243C385.048 38.0948 386.968 38.0948 388.152 39.5243C386.436 41.4541 384.578 40.3284 383.863 39.5243Z" fill="white"/>
<path d="M373.142 39.5243C374.326 38.0948 376.246 38.0948 377.431 39.5243C375.715 41.4541 373.857 40.3284 373.142 39.5243Z" fill="white"/>
<path d="M373.142 37.9161C374.326 36.4866 376.246 36.4866 377.431 37.9161" stroke="#1A2027" stroke-width="1.07212"/>
<path d="M373.678 41.1325C374.566 40.4177 376.006 40.4177 376.895 41.1325" stroke="#1A2027" stroke-width="1.07212"/>
<path d="M384.4 41.1325C385.288 40.4177 386.728 40.4177 387.616 41.1325" stroke="#1A2027" stroke-width="1.07212"/>
<circle r="1.07212" transform="matrix(-1 0 0 1 386.008 39.5243)" fill="#1A2027"/>
<circle r="1.07212" transform="matrix(-1 0 0 1 375.287 39.5243)" fill="#1A2027"/>
<path d="M380.807 48.3816C381.345 47.913 382.652 47.4192 384.483 48.5033C386.475 49.6826 387.759 48.3693 388.152 47.5652C387.802 48.816 386.37 51.3176 383.435 51.3176C382.074 51.3176 381.254 51.0596 380.794 50.6871C380.36 50.9895 379.639 51.1925 378.503 51.1925C375.834 51.1925 374.532 48.8577 374.214 47.6903C374.572 48.4408 375.739 49.6666 377.55 48.5658C379.125 47.6085 380.273 47.9695 380.807 48.3816Z" fill="#7B371F"/>
<g clip-path="url(#clip2)">
<path d="M150.183 192.929L126.71 115.109H165.574C165.574 115.109 175.223 129.315 174.151 144.86C173.238 158.103 170.185 177.065 169.3 185.308C169.141 186.792 170.654 187.757 172.1 187.389C186.939 183.621 198.16 208.544 204.438 226.878L197.738 233.31L154.595 199.395C152.495 197.744 150.955 195.486 150.183 192.929Z" fill="#9B4B35"/>
<path d="M106.352 182.688C106.41 178.166 106.728 164.896 108.484 156.118C110.628 145.396 119.205 115.109 119.205 115.109H143.06C143.06 124.614 142.041 146.712 137.967 159.066L130.524 181.634C130.097 182.928 131.112 184.244 132.356 184.801C142.852 189.506 134.563 223.84 132.07 244.032H121.081L106.718 185.794C106.466 184.776 106.339 183.737 106.352 182.688Z" fill="#9B4B35"/>
<rect width="20.9064" height="10.1852" rx="2.14425" transform="matrix(-0.799308 0.600922 0.600922 0.799308 194.565 204.095)" fill="#F23116"/>
<path d="M110.487 132.228L117.328 117.43C117.982 116.015 119.399 115.109 120.958 115.109H129.122L140.647 161.478L137.85 175.465C137.233 178.552 137.711 181.757 139.203 184.528C140.154 186.293 140.7 188.248 140.802 190.25L141.87 211.206C142.371 221.041 134.532 229.29 124.684 229.29C116.266 229.29 109.083 223.199 107.708 214.893L103.682 190.587C103.31 188.341 103.179 186.063 103.291 183.79L104.657 155.945C105.06 147.739 107.039 139.686 110.487 132.228Z" fill="#F23116"/>
<path d="M215.376 226.232C212.435 223.29 209.195 220.662 205.71 218.389L205.161 218.031C201.332 215.534 196.177 217.042 194.298 221.209L194.25 221.316C193.876 222.144 192.825 222.402 192.111 221.841L191.973 221.733C189.825 220.045 186.755 220.229 184.824 222.16C183.124 223.86 182.753 226.478 183.914 228.582L184.956 230.471C186.873 233.944 186.949 238.14 185.159 241.68L181.724 248.478C180.165 251.563 180.763 255.3 183.207 257.744L184.243 258.78C185.805 260.342 188.338 260.342 189.9 258.78L216.216 232.464C217.705 230.975 217.705 228.56 216.216 227.071L215.376 226.232Z" fill="#1A2027"/>
<path d="M215.122 225.977L185.935 255.164C185.306 255.792 185.306 256.81 185.935 257.438C186.563 258.066 187.581 258.066 188.209 257.438L217.396 228.251L215.122 225.977Z" fill="white"/>
<path d="M185.88 237.024L191.62 235.832L185.555 238.865L190.591 239.136" stroke="#F23116" stroke-width="1.07212" stroke-linejoin="bevel"/>
<path fill-rule="evenodd" clip-rule="evenodd" d="M140.574 188.387C136.33 185.626 128.318 179.53 128.318 168.179V117.789L132.99 130.671L140.647 161.478L137.848 175.471C137.232 178.554 137.71 181.755 139.201 184.523C139.854 185.737 140.316 187.04 140.574 188.387Z" fill="#C61800"/>
<path d="M173.216 122.491L170.78 117.386C170.116 115.995 168.712 115.109 167.17 115.109H121.885L145.032 192.543C146.493 197.432 149.219 201.848 152.933 205.347L163.982 215.754C165.905 217.565 168.26 218.853 170.822 219.493C175.151 220.576 179.736 219.732 183.396 217.18L194.502 209.434C196.698 207.903 198.006 205.396 198.006 202.72C198.006 200.958 197.437 199.243 196.385 197.829L189.061 187.998C187.096 185.36 184.183 183.589 180.937 183.058C177.416 182.481 175.063 179.114 175.732 175.609L178.32 162.059C180.878 148.663 179.09 134.799 173.216 122.491Z" fill="#F23116"/>
<rect width="20.9064" height="10.1852" rx="2.14425" transform="matrix(-1 0 0 1 135.287 225.001)" fill="#F23116"/>
<path d="M136.358 255.918C136.358 251.757 135.926 247.608 135.069 243.537L134.934 242.896C133.992 238.422 129.281 235.843 125.005 237.461L124.895 237.503C124.046 237.824 123.12 237.263 123.012 236.361L122.991 236.187C122.666 233.475 120.365 231.434 117.634 231.434C115.23 231.434 113.117 233.024 112.45 235.332L111.851 237.405C110.75 241.216 107.837 244.236 104.068 245.474L96.832 247.852C93.5486 248.931 91.3292 251.996 91.3292 255.452V256.917C91.3292 259.127 93.1201 260.917 95.3292 260.917H132.545C134.651 260.917 136.358 259.21 136.358 257.104V255.918Z" fill="#1A2027"/>
<path d="M136.358 255.557H95.0817C94.1935 255.557 93.4735 256.277 93.4735 257.165C93.4735 258.053 94.1935 258.773 95.0817 258.773H136.358V255.557Z" fill="white"/>
<path d="M107.871 242.691L112.772 245.908L106.339 243.764L109.709 247.516" stroke="#F23116" stroke-width="1.07212" stroke-linejoin="bevel"/>
<path d="M163.965 118.861L168.983 132.91C170.976 138.491 171.769 144.43 171.309 150.339L169.348 175.521C168.872 181.637 172.91 187.193 178.874 188.629V188.629C181.547 189.273 183.933 190.78 185.661 192.918L190.777 199.245C192.289 201.116 192.825 203.592 192.221 205.92V205.92C191.642 208.155 192.111 210.531 193.496 212.377L194.521 213.744" stroke="white" stroke-width="2.14425"/>
</g>
<path d="M81.107 90.9076L108.609 103.524C110.343 104.241 112.334 103.755 113.531 102.322L125.785 87.648C133.468 87.648 140.717 84.0879 145.415 78.008L159.409 59.8958L144.4 59.8958H132.606C130.049 59.8478 127.377 61.1771 125.672 63.6722C120.155 71.7438 112.386 82.9503 106.425 90.9076C105.59 92.0214 103.927 92.0278 102.924 91.0514C101.92 90.0751 97.6439 84.1641 88.8749 81.9528C86.3342 81.3121 84.1298 79.652 83.0095 77.2799L81.9349 75.0044C81.7001 74.5072 81.3426 74.0775 80.8963 73.7559L75.8306 70.1055C75.2857 69.7129 74.6331 69.4992 73.9635 69.4941L70.437 69.4675C69.5944 69.4612 69.079 70.3841 69.524 71.1027L69.8903 71.6942C70.3413 72.4225 71.062 72.9435 71.8937 73.1426L73.0556 73.4207C73.233 73.4632 73.4035 73.5313 73.5615 73.623L73.8723 73.803C74.5976 74.2235 74.8486 75.1504 74.4327 75.8735C74.0901 76.4692 73.3872 76.756 72.7224 76.5712L68.476 75.3907C67.9637 75.2483 67.4938 74.9816 67.1081 74.6144L62.6013 70.3242C62.1925 69.9351 61.5559 69.922 61.1361 70.294C60.8173 70.5766 60.6955 71.0213 60.8252 71.4293L61.7629 74.3807C61.8785 74.7442 61.9266 75.1254 61.9049 75.5054C61.8602 76.2911 62.1143 77.0665 62.6161 77.676L62.8334 77.9399C63.1351 78.3063 63.3146 78.7576 63.3465 79.23L63.3718 79.6044C63.4069 80.1237 63.6989 80.5927 64.1501 80.8542L64.2428 80.9079C64.6091 81.1202 64.8553 81.4922 64.9071 81.9118C64.9589 82.3313 65.205 82.7033 65.5714 82.9156L67.3026 83.9191C67.6186 84.1022 67.9724 84.2095 68.336 84.2325C68.7583 84.2591 69.1681 84.4007 69.5185 84.6398C73.1507 87.1185 77.0468 89.2275 81.107 90.9076Z" fill="#9B4B35"/>
<path d="M111.433 70.8661C116.308 63.9845 124.217 59.8945 132.65 59.8945H136.091L124.976 99.7226C124.174 102.596 120.622 103.612 118.422 101.597L103.581 88.0083C102.094 86.6468 101.853 84.3914 103.018 82.7462L111.433 70.8661Z" fill="#FFB3DA"/>
<path d="M71.394 71.4733C72.0924 71.6126 72.7338 71.3482 72.8268 70.8826C72.9197 70.417 72.4289 69.9266 71.7305 69.7873C71.0321 69.6479 70.3907 69.9123 70.2978 70.3779C70.2048 70.8435 70.6956 71.3339 71.394 71.4733Z" fill="#D58E54"/>
<path fill-rule="evenodd" clip-rule="evenodd" d="M131.773 59.9092L128.222 61.6845C124.698 63.4466 122.079 66.6123 121.009 70.4044L113.483 97.0753L118.422 101.597C120.622 103.612 124.174 102.596 124.976 99.7225L131.802 75.2615V59.9082C131.792 59.9085 131.783 59.9088 131.773 59.9092Z" fill="#F778B9"/>
<path d="M165.842 111.109V59.8945H157.265L143.651 75.6295C141.228 78.431 136.626 76.7168 136.626 73.0123V59.8945C130.195 59.8945 124.743 64.6282 123.842 70.9965L118.242 110.548C117.901 112.956 119.77 115.109 122.203 115.109H161.842C164.051 115.109 165.842 113.318 165.842 111.109Z" fill="#FFB3DA"/>
<path d="M165.842 93.6663C163.709 93.6663 161.664 91.9437 160.156 88.8775C158.648 85.8113 157.801 81.6527 157.801 77.3164C157.801 72.9802 158.648 68.8215 160.156 65.7553C161.664 62.6891 163.709 60.9666 165.842 60.9666L165.842 77.3164V93.6663Z" fill="#F778B9"/>
<path d="M186.065 100.519L173.047 64.9358C171.939 61.9081 169.058 59.8945 165.834 59.8945C160.15 59.8945 156.421 65.8565 158.875 70.9833C163.136 79.8857 169.009 92.3712 172.917 101.552C173.475 102.863 172.926 104.357 171.787 105.212C160.314 113.82 153.184 138.385 152.172 142.18C151.212 145.782 147.885 154.331 147.203 156.073C147.12 156.283 147.075 156.501 147.067 156.728L146.836 162.966C146.821 163.377 147.008 163.77 147.337 164.017C148.082 164.575 149.155 164.157 149.324 163.241L150.23 158.349C150.274 158.114 150.359 157.889 150.482 157.684L152.088 155.007C152.374 154.53 153.11 154.808 153.008 155.356L152.241 159.499C152.195 159.744 152.196 159.996 152.243 160.241L153.377 166.137C153.461 166.57 153.772 166.925 154.19 167.065C155.016 167.34 155.856 166.688 155.794 165.819L155.415 160.505C155.397 160.262 155.424 160.019 155.495 159.786L156.382 156.837C156.542 156.306 157.32 156.392 157.36 156.945L157.498 158.858C157.521 159.171 157.617 159.474 157.778 159.743L161.085 165.255C161.365 165.72 161.911 165.955 162.441 165.837C163.226 165.663 163.65 164.81 163.315 164.079L161.164 159.385C161.067 159.174 161.012 158.947 161.003 158.715L160.956 157.605C160.937 157.152 161.595 157.076 161.68 157.521C161.769 157.986 162.077 158.379 162.507 158.576L166.953 160.614C167.629 160.924 168.421 160.543 168.601 159.821C168.716 159.363 168.548 158.879 168.173 158.591L166.006 156.924C165.56 156.581 165.279 156.066 165.232 155.505L165.071 153.566C165.049 153.311 165.127 153.058 165.286 152.858C167.054 150.649 167.188 147.55 165.619 145.196L165.574 145.128L185.632 106.992C186.684 104.992 186.841 102.641 186.065 100.519Z" fill="#9B4B35"/>
<path d="M147.079 162.818C147.079 163.41 147.439 163.89 147.884 163.89C148.328 163.89 148.688 163.41 148.688 162.818C148.688 162.226 148.328 161.746 147.884 161.746C147.439 161.746 147.079 162.226 147.079 162.818Z" fill="#D58E54"/>
<path d="M153.512 165.499C153.512 166.091 153.872 166.571 154.316 166.571C154.76 166.571 155.12 166.091 155.12 165.499C155.12 164.906 154.76 164.426 154.316 164.426C153.872 164.426 153.512 164.906 153.512 165.499Z" fill="#D58E54"/>
<path d="M161.184 164.852C161.455 165.396 161.96 165.645 162.312 165.41C162.663 165.175 162.729 164.544 162.458 164.001C162.187 163.457 161.683 163.208 161.331 163.443C160.979 163.678 160.913 164.309 161.184 164.852Z" fill="#D58E54"/>
<path d="M166.762 160.063C167.348 160.25 167.891 160.075 167.975 159.672C168.059 159.269 167.652 158.791 167.066 158.605C166.48 158.418 165.937 158.593 165.853 158.996C165.769 159.398 166.176 159.876 166.762 160.063Z" fill="#D58E54"/>
<path d="M165.842 106.532V72.2239H157.265L153.657 96.6768C152.876 101.864 156.892 106.532 162.138 106.532H165.842Z" fill="#F778B9"/>
<path d="M186.669 79.4328C183.719 67.9346 173.355 59.8945 161.485 59.8945H156.997V96.6352C156.997 98.8443 158.788 100.635 160.997 100.635H186.953C189.566 100.635 191.477 98.1716 190.828 95.6411L186.669 79.4328Z" fill="#FFB3DA"/>
<path fill-rule="evenodd" clip-rule="evenodd" d="M130.963 17.4372C129.234 20.0274 127.787 22.9905 125.76 25.3545C122.286 29.4057 120.476 34.8867 121.309 40.668L121.862 44.5012C122.401 48.2479 121.827 52.0706 120.211 55.4935L119.48 57.0406C118.854 58.3674 119.822 59.8947 121.289 59.8947H152.441C163.099 59.8947 171.739 51.2546 171.739 40.5965V37.9161C171.739 32.4739 169.486 27.5578 165.862 24.0495C163.646 21.9041 161.939 19.1239 159.995 16.7293C158.275 14.611 155.65 13.2573 152.709 13.2573H138.771C135.514 13.2573 132.645 14.9172 130.963 17.4372Z" fill="#1A2027"/>
<path fill-rule="evenodd" clip-rule="evenodd" d="M152.31 35.7718H145.205C141.912 35.7718 138.857 34.2313 136.895 31.6897V35.7718C135.331 35.7718 133.878 35.2342 132.727 34.3236C132.439 35.046 132.238 35.833 132.14 36.6847C132.046 37.4965 131.946 38.3135 131.637 39.07C131.306 39.88 130.998 40.6327 130.998 41.6684C130.998 44.3528 131.669 46.8528 132.857 48.9491C133.225 49.5992 133.568 50.2765 133.911 50.9562L133.911 50.9562C134.538 52.1966 135.169 53.4448 135.969 54.5495C137.138 56.1639 139.038 57.2142 141.183 57.2142C141.436 57.2142 141.685 57.1996 141.93 57.1713L140.631 62.0098C139.828 64.9988 142.08 67.9354 145.174 67.9354C150.372 67.9354 154.585 63.7224 154.585 58.5253V47.0869C154.67 46.8807 154.751 46.6717 154.828 46.4601C155.153 45.5552 155.973 44.8848 156.934 44.8848C158.301 44.8848 159.409 43.7768 159.409 42.4101C159.409 39.8724 156.045 38.979 154.786 41.1823C154.767 41.2145 154.724 41.2204 154.698 41.1933C154.082 40.5301 153.607 39.2358 153.047 37.7126C152.821 37.0944 152.58 36.4385 152.31 35.7718Z" fill="#9B4B35"/>
<path d="M140.647 38.4521L140.273 41.0745C140.166 41.8216 139.924 42.5428 139.557 43.2025L138.733 44.6861C138.149 45.7373 138.909 47.0291 140.111 47.0291V47.0291" stroke="#1A2027" stroke-width="1.07212"/>
<path d="M136.895 44.8848C136.895 45.4769 137.375 45.9569 137.967 45.9569L138.503 45.9569" stroke="#1A2027" stroke-width="1.07212"/>
<path d="M141.719 45.9569C142.311 45.9569 142.792 45.4769 142.792 44.8848" stroke="#1A2027" stroke-width="1.07212"/>
<path d="M137.433 49.7532C137.476 49.3611 139.246 49.2259 139.685 50.1665C140.201 49.2259 143.12 48.8001 144.399 49.5774C142.893 50.9605 143.063 52.39 139.914 52.39C138.693 52.39 138.175 51.2156 138.046 50.5708C137.881 50.4035 137.39 50.1454 137.433 49.7532Z" fill="#1A2027"/>
<path d="M142.791 40.0603C142.791 40.9484 143.511 41.6685 144.399 41.6685" stroke="#1A2027" stroke-width="1.07212"/>
<path d="M138.503 40.0603C138.503 40.9484 137.783 41.6685 136.895 41.6685" stroke="#1A2027" stroke-width="1.07212"/>
<path d="M149.224 38.4522C147.448 36.3079 144.568 36.3079 142.792 38.4522" stroke="#1A2027" stroke-width="1.07212"/>
<path d="M132.07 38.4522C133.847 36.3079 136.727 36.3079 138.503 38.4522" stroke="#1A2027" stroke-width="1.07212"/>
<path d="M143.863 39.5243C145.048 38.0948 146.968 38.0948 148.152 39.5243C146.436 41.4541 144.578 40.3284 143.863 39.5243Z" fill="white"/>
<path d="M133.142 39.5243C134.326 38.0948 136.246 38.0948 137.431 39.5243C135.715 41.4541 133.857 40.3284 133.142 39.5243Z" fill="white"/>
<circle r="1.07212" transform="matrix(-1 0 0 1 146.008 39.5243)" fill="#1A2027"/>
<circle r="1.07212" transform="matrix(-1 0 0 1 135.287 39.5243)" fill="#1A2027"/>
<g clip-path="url(#clip3)">
<path d="M272.115 176.206L263.287 150.681L269.987 115.109H286.342C288.218 115.109 289.842 116.413 290.247 118.245L304.362 182.066C305.904 189.036 305.764 196.274 303.956 203.181L300.287 217.195C299.426 220.483 297.211 223.252 294.193 224.814L293.436 225.205C292.339 225.773 291.566 226.814 291.341 228.028L289.018 240.547H273.74L272.537 227.583C272.448 226.629 272.02 225.739 271.331 225.074L268.637 222.475C265.941 219.874 264.614 216.165 265.049 212.444L267.787 189.029C267.996 187.235 268.828 185.572 270.137 184.328C272.331 182.243 273.105 179.067 272.115 176.206Z" fill="#F97600"/>
<path fill-rule="evenodd" clip-rule="evenodd" d="M265.69 157.631L272.115 176.206C273.105 179.067 272.331 182.243 270.137 184.328C268.828 185.572 267.996 187.235 267.787 189.029L267.094 194.952C271.437 191.718 277.224 185.866 277.224 176.22V125.83L265.69 157.631ZM273.188 234.605C280.494 233.991 289.777 227.426 283.389 227.682C278.962 227.859 274.413 226.403 271.704 225.488C272.175 226.089 272.466 226.815 272.537 227.583L273.188 234.605Z" fill="#DE5000"/>
<path d="M230.502 140.134L230.998 136.955C232.14 129.629 234.882 122.644 239.031 116.498C239.617 115.629 240.596 115.109 241.644 115.109H282.585L275.53 134.686C273.094 141.447 271.441 148.464 270.604 155.601L267.038 185.993C266.505 190.543 265.484 195.023 263.994 199.355L256.5 221.139C255.377 224.403 252.745 226.924 249.434 227.905C248.22 228.265 247.288 229.243 246.988 230.473L244.525 240.547H231.123V227.829C231.123 226.895 230.675 226.018 229.917 225.471C227.645 223.829 226.299 221.197 226.299 218.394V192.056C226.299 189.61 227.118 187.235 228.625 185.309C230.237 183.249 231.059 180.68 230.941 178.067L229.804 152.873C229.612 148.614 229.846 144.346 230.502 140.134Z" fill="#F97600"/>
<path d="M270.256 255.918C270.256 251.757 270.688 247.608 271.545 243.537L271.68 242.896C272.622 238.422 277.333 235.843 281.609 237.461L281.719 237.503C282.568 237.824 283.494 237.263 283.602 236.361L283.623 236.187C283.949 233.475 286.249 231.434 288.981 231.434C291.384 231.434 293.498 233.024 294.165 235.332L294.763 237.405C295.864 241.216 298.777 244.236 302.546 245.474L309.782 247.852C313.066 248.931 315.285 251.996 315.285 255.452V256.917C315.285 259.127 313.494 260.917 311.285 260.917H274.069C271.963 260.917 270.256 259.21 270.256 257.104V255.918Z" fill="#1A2027"/>
<path d="M228.443 249.66L229.596 238.804C229.774 237.125 231.87 236.469 232.974 237.745C233.142 237.94 233.451 237.919 233.59 237.702L235.601 234.588C236.871 232.622 239.052 231.434 241.392 231.434C244.456 231.434 247.152 233.457 248.01 236.398L248.941 239.594C249.679 242.124 251.229 244.342 253.353 245.903L255.202 247.262C257.252 248.77 258.462 251.163 258.462 253.708V256.917C258.462 259.127 256.671 260.917 254.462 260.917H232.443C230.234 260.917 228.443 259.127 228.443 256.917V249.66Z" fill="#1A2027"/>
<path d="M270.256 255.557H311.533C312.421 255.557 313.141 256.277 313.141 257.165C313.141 258.053 312.421 258.773 311.533 258.773H270.256V255.557Z" fill="white"/>
<path d="M228.443 255.557H237.02C237.908 255.557 238.628 256.277 238.628 257.165C238.628 258.053 237.908 258.773 237.02 258.773H228.443V255.557Z" fill="white"/>
<path d="M298.743 242.691L293.842 245.908L300.275 243.764L296.905 247.516" stroke="#1570FF" stroke-width="1.07212" stroke-linejoin="bevel"/>
<path d="M249.349 242.691L239.968 244.836H250.689L243.453 246.98" stroke="#1570FF" stroke-width="1.07212" stroke-linejoin="bevel"/>
<path fill-rule="evenodd" clip-rule="evenodd" d="M231.124 235.173V227.829C231.124 226.909 230.688 226.044 229.952 225.496C232.737 226.41 237.469 227.915 241.844 228.486C244.383 228.817 243.376 229.103 241.146 229.736C238.133 230.591 232.885 232.081 231.124 235.173Z" fill="#DE5000"/>
</g>
<rect x="242.38" y="59.8945" width="43.957" height="55.2143" rx="3.75243" fill="black"/>
<path d="M240.772 59.8945H258.58C274.044 59.8945 286.58 72.4306 286.58 87.8946V111.129C286.58 113.338 284.789 115.109 282.58 115.109H246.016C243.845 115.109 242.07 113.377 242.017 111.206L240.772 59.8945Z" fill="#F4B510"/>
<path d="M220.508 100.632L233.567 64.9358C234.675 61.9081 237.556 59.8945 240.78 59.8945C246.463 59.8945 250.193 65.8565 247.739 70.9833C243.478 79.8857 237.605 92.3712 233.697 101.552C233.139 102.863 233.686 104.358 234.832 105.205C244.115 112.065 251.435 129.086 254.161 137.623H236.021L220.849 106.925C219.879 104.962 219.755 102.688 220.508 100.632Z" fill="#F4B510"/>
<path d="M259.411 156.073C258.729 154.331 255.402 145.782 254.442 142.18C254.238 141.416 253.786 139.771 253.101 137.624H237.02L241.04 145.128L240.995 145.196C239.426 147.55 239.56 150.649 241.327 152.859C241.487 153.058 241.564 153.311 241.543 153.566L241.381 155.505C241.335 156.066 241.054 156.581 240.608 156.924L238.441 158.591C238.066 158.88 237.898 159.363 238.013 159.822C238.193 160.543 238.985 160.924 239.661 160.614L244.107 158.576C244.537 158.379 244.845 157.986 244.934 157.521C245.018 157.076 245.676 157.152 245.657 157.605L245.611 158.715C245.602 158.947 245.547 159.174 245.45 159.385L243.299 164.079C242.964 164.81 243.388 165.663 244.172 165.837C244.703 165.955 245.249 165.721 245.529 165.255L248.836 159.743C248.997 159.474 249.093 159.171 249.115 158.858L249.254 156.946C249.294 156.392 250.071 156.306 250.231 156.837L251.119 159.786C251.189 160.019 251.216 160.262 251.199 160.505L250.819 165.82C250.757 166.688 251.598 167.34 252.423 167.065C252.842 166.925 253.153 166.571 253.236 166.137L254.37 160.241C254.417 159.996 254.418 159.744 254.373 159.499L253.606 155.356C253.504 154.808 254.239 154.53 254.526 155.008L256.132 157.684C256.255 157.889 256.34 158.114 256.384 158.349L257.289 163.241C257.459 164.157 258.532 164.575 259.277 164.017C259.606 163.77 259.793 163.377 259.778 162.966L259.547 156.728C259.538 156.501 259.494 156.284 259.411 156.073Z" fill="#7B371F"/>
<path d="M259.534 162.818C259.534 163.41 259.174 163.89 258.73 163.89C258.286 163.89 257.926 163.41 257.926 162.818C257.926 162.226 258.286 161.746 258.73 161.746C259.174 161.746 259.534 162.226 259.534 162.818Z" fill="#D58E54"/>
<path d="M253.102 165.499C253.102 166.091 252.742 166.571 252.297 166.571C251.853 166.571 251.493 166.091 251.493 165.499C251.493 164.906 251.853 164.426 252.297 164.426C252.742 164.426 253.102 164.906 253.102 165.499Z" fill="#D58E54"/>
<path d="M245.43 164.852C245.159 165.396 244.654 165.645 244.302 165.41C243.95 165.175 243.885 164.544 244.155 164.001C244.426 163.457 244.931 163.208 245.283 163.443C245.635 163.678 245.701 164.309 245.43 164.852Z" fill="#D58E54"/>
<path d="M239.852 160.063C239.266 160.25 238.723 160.075 238.639 159.672C238.555 159.269 238.962 158.791 239.548 158.605C240.134 158.418 240.677 158.593 240.761 158.996C240.845 159.398 240.438 159.876 239.852 160.063Z" fill="#D58E54"/>
<path d="M264.874 91.2452L248.545 59.8945H268.648V90.3213C268.648 92.4139 265.841 93.1012 264.874 91.2452Z" fill="#E379F8"/>
<path d="M245.597 60.4306L264.244 96.3665C266.054 99.8541 271.328 98.5673 271.328 94.6381V59.8945" stroke="#FECE00" stroke-width="2.14425"/>
<path d="M220.56 69.6828L232.195 61.7708H234.875L258.73 99.295V121.006H222.278L220.402 146.736H201.104V109.175C201.104 107.965 201.378 106.77 201.906 105.682L217.861 72.8054C218.472 71.5464 219.403 70.4697 220.56 69.6828Z" fill="#F97600"/>
<path fill-rule="evenodd" clip-rule="evenodd" d="M234.071 68.4715L226.545 74.2775C225.325 75.2186 224.339 76.429 223.664 77.8141L210.155 105.53C209.49 106.895 209.144 108.393 209.144 109.911V146.736H201.104V109.175C201.104 107.965 201.378 106.77 201.906 105.682L217.861 72.8054C218.472 71.5464 219.403 70.4697 220.56 69.6828L232.195 61.7708H234.875L235.475 62.7146L234.071 68.4715Z" fill="#105ACD"/>
<path d="M282.049 102.511L292.234 69.2756L298.342 84.046C299.162 86.029 299.322 88.2233 298.8 90.3045L293.038 113.233H282.049V102.511Z" fill="#F97600"/>
<path fill-rule="evenodd" clip-rule="evenodd" d="M244.53 55.0754C244.528 55.0731 244.524 55.0703 244.527 55.0695C244.682 55.0334 252.639 53.1938 260.071 53.1938C267.539 53.1938 274.211 55.0519 274.276 55.0699C274.277 55.0703 274.275 55.0714 274.274 55.0726C274.273 55.074 274.274 55.076 274.276 55.0761C274.521 55.0904 274.764 55.1304 275.001 55.1956L289.643 59.2222C291.319 59.6831 291.274 62.0755 289.582 62.4737C288.352 62.7631 287.871 64.2565 288.701 65.2093L293.375 70.5751C293.832 71.0999 293.983 71.8247 293.774 72.4887L283.796 104.213C283.704 104.507 283.657 104.812 283.657 105.12C283.657 106.788 285.01 108.14 286.678 108.14H294.111C296.035 108.14 297.595 109.7 297.595 111.625C297.595 113.549 296.035 115.109 294.111 115.109H284.193C282.121 115.109 280.441 113.429 280.441 111.357V104.791C280.441 104.523 280.412 104.256 280.355 103.994L270.952 60.739C270.845 60.2461 270.409 59.8946 269.904 59.8946H251.619C250.924 59.8946 250.413 60.5451 250.577 61.2201L261.036 104.219C261.107 104.509 261.143 104.807 261.143 105.106V121.542C261.143 123.614 259.463 125.294 257.39 125.294H225.629C223.63 125.294 222.01 123.674 222.01 121.676C222.01 119.677 223.63 118.057 225.629 118.057H254.442C256.514 118.057 258.194 116.377 258.194 114.305V106.128C258.194 105.182 257.837 104.27 257.193 103.576L228.593 72.738C227.898 71.9884 227.88 70.8353 228.551 70.0644L232.685 65.3186C233.558 64.3162 233.052 62.7449 231.758 62.4405C230.011 62.0293 229.92 59.5758 231.633 59.0376L243.708 55.2427C243.974 55.1588 244.249 55.1052 244.528 55.0825C244.531 55.0822 244.533 55.0779 244.53 55.0754Z" fill="white"/>
<path d="M226.299 98.3467C226.299 97.2421 227.194 96.3467 228.299 96.3467H242.525C243.629 96.3467 244.525 97.2421 244.525 98.3467V109.956C244.525 110.508 244.297 111.035 243.896 111.413L240.835 114.293C240.278 114.817 239.543 115.109 238.779 115.109H232.045C231.281 115.109 230.545 114.817 229.989 114.293L226.928 111.413C226.527 111.035 226.299 110.508 226.299 109.956V98.3467Z" fill="#1570FF"/>
<path d="M291.698 95.1304C291.698 94.0258 292.594 93.1304 293.698 93.1304H296.667C297.772 93.1304 298.667 94.0258 298.667 95.1304V104.231C298.667 104.545 298.593 104.856 298.45 105.136L297.714 106.587C297.23 107.54 296.251 108.14 295.183 108.14C294.114 108.14 293.136 107.54 292.652 106.587L291.915 105.136C291.773 104.856 291.698 104.545 291.698 104.231V95.1304Z" fill="#1570FF"/>
<rect x="200.568" y="146.469" width="20.3703" height="9.6491" rx="1.07212" fill="#DE5000"/>
<path fill-rule="evenodd" clip-rule="evenodd" d="M234.431 134.407L233.372 132.263H252.244C252.534 133.002 252.805 133.719 253.056 134.407H234.431Z" fill="#FECE00"/>
<path d="M267.221 20.9424C274.954 22.0173 281.277 27.5241 276.42 34.6998C271.488 41.9862 272.898 48.7134 264.078 50.5038C258.921 51.5509 248.87 53.7287 248.87 40.5604C248.87 37.0668 247.815 26.5697 254.807 28.1984C256.068 22.3817 260.904 20.0644 267.221 20.9424Z" fill="#1A2027"/>
<path fill-rule="evenodd" clip-rule="evenodd" d="M273.757 48.9491C274.945 46.8528 275.616 44.3528 275.616 41.6685C275.616 40.6327 275.309 39.8801 274.978 39.07L274.978 39.07C274.669 38.3136 274.56 37.497 274.506 36.6816C274.156 31.3778 271.406 30.6792 266.235 30.6792C265.609 30.6792 264.969 30.6572 264.335 30.6354C262.027 30.5561 259.812 30.4799 258.73 31.4833C257.362 32.753 256.7 34.6165 256.065 36.4036C255.269 38.6461 254.515 40.7682 252.462 41.4453C252.217 41.5262 251.957 41.4065 251.828 41.1823C250.569 38.979 247.205 39.8724 247.205 42.4101C247.205 43.7769 248.313 44.8848 249.68 44.8848C250.642 44.8848 251.461 45.5552 251.787 46.4602C251.863 46.6717 251.944 46.8807 252.03 47.0869V58.5254C252.03 63.7224 256.243 67.9355 261.44 67.9355C264.535 67.9355 266.787 64.9988 265.984 62.0099L264.684 57.1713C264.929 57.1997 265.178 57.2143 265.431 57.2143C267.577 57.2143 269.477 56.164 270.645 54.5495C271.445 53.4449 272.076 52.1967 272.703 50.9562C273.047 50.2766 273.389 49.5992 273.757 48.9491Z" fill="#7B371F"/>
<path d="M265.967 38.4521L266.341 41.0745C266.448 41.8216 266.691 42.5428 267.057 43.2025L267.881 44.6861C268.465 45.7373 267.705 47.0291 266.503 47.0291V47.0291" stroke="#1A2027" stroke-width="1.07212"/>
<path d="M269.719 44.8848C269.719 45.4769 269.239 45.9569 268.647 45.9569L268.111 45.9569" stroke="#1A2027" stroke-width="1.07212"/>
<path d="M264.895 45.9569C264.303 45.9569 263.823 45.4769 263.823 44.8848" stroke="#1A2027" stroke-width="1.07212"/>
<path d="M262.215 49.8985C264.37 48.525 267.01 49.1603 268.111 51.3176" stroke="#1A2027" stroke-width="1.07212"/>
<path d="M261.679 36.3078C260.791 37.3801 259.626 37.9161 258.462 37.916" stroke="#1A2027" stroke-width="1.07212"/>
<path d="M270.255 36.3078C271.144 37.3801 272.308 37.9161 273.472 37.916" stroke="#1A2027" stroke-width="1.07212"/>
<path d="M262.751 39.5243C261.567 38.0948 259.647 38.0948 258.462 39.5243C260.178 41.4541 262.036 40.3284 262.751 39.5243Z" fill="white"/>
<path d="M273.472 39.5243C272.288 38.0948 270.368 38.0948 269.184 39.5243C270.899 41.4541 272.757 40.3284 273.472 39.5243Z" fill="white"/>
<path d="M272.936 41.1324C272.047 41.8471 270.607 41.8471 269.719 41.1324" stroke="#1A2027" stroke-width="1.07212"/>
<path d="M262.214 41.1324C261.326 41.8471 259.886 41.8471 258.998 41.1324" stroke="#1A2027" stroke-width="1.07212"/>
<circle cx="260.606" cy="39.5243" r="1.07212" fill="#1A2027"/>
<circle cx="271.327" cy="39.5243" r="1.07212" fill="#1A2027"/>
<path fill-rule="evenodd" clip-rule="evenodd" d="M265.379 47.3015C264.891 47.1371 264.334 47.0291 263.856 47.0291C262.731 47.0291 260.48 48.2913 260.071 51.6573C260.075 51.6576 260.078 51.6578 260.082 51.658C259.992 52.5016 260.31 57.7503 266.065 57.7503C270.509 57.7503 271.417 54.5782 271.321 51.6571C271.322 51.6572 271.323 51.6572 271.324 51.6573C271.415 49.8734 270.117 46.3054 267.44 47.275C266.797 47.5077 266.027 47.5194 265.379 47.3015ZM270.427 51.4736C269.696 51.2457 268.973 50.8484 268.332 50.4428C267.115 49.6728 265.692 49.6478 264.434 50.3501C263.562 50.8367 262.533 51.3237 261.48 51.5444C261.764 51.7428 261.987 52.0686 262.208 52.3912C262.507 52.8275 262.802 53.2577 263.237 53.3578C263.974 53.3578 264.423 52.9995 265.006 52.5002C265.523 52.057 266.041 51.6128 266.579 51.6128C267.116 51.6128 267.672 52.0838 268.125 52.5118C268.544 52.9076 268.925 53.2665 269.305 53.1821C269.635 53.1089 269.812 52.7 269.999 52.267C270.122 51.9838 270.249 51.6902 270.427 51.4736Z" fill="#1A2027"/>
<defs>
<clipPath id="clip0">
<rect width="134.015" height="145.809" fill="white" transform="translate(-44 115.109)"/>
</clipPath>
<clipPath id="clip1">
<rect width="134.015" height="145.809" fill="white" transform="matrix(-1 0 0 1 458.376 115.109)"/>
</clipPath>
<clipPath id="clip2">
<rect width="134.015" height="145.809" fill="white" transform="matrix(-1 0 0 1 218.376 115.109)"/>
</clipPath>
<clipPath id="clip3">
<rect width="134.015" height="145.809" fill="white" transform="translate(188.238 115.109)"/>
</clipPath>
</defs>
</svg>
