<svg width="19" height="20" viewBox="0 0 19 20" fill="none" xmlns="http://www.w3.org/2000/svg">
<path d="M9.01562 14.8877C10.4019 14.8877 11.6802 14.4395 12.7261 13.6924L16.6606 17.627C16.8433 17.8096 17.084 17.9009 17.3413 17.9009C17.8809 17.9009 18.2627 17.4858 18.2627 16.9546C18.2627 16.7056 18.1797 16.4648 17.9971 16.2905L14.0874 12.3726C14.9092 11.2935 15.3989 9.95703 15.3989 8.50439C15.3989 4.99316 12.5269 2.12109 9.01562 2.12109C5.5127 2.12109 2.63232 4.98486 2.63232 8.50439C2.63232 12.0156 5.50439 14.8877 9.01562 14.8877ZM9.01562 13.5098C6.27637 13.5098 4.01025 11.2437 4.01025 8.50439C4.01025 5.76514 6.27637 3.49902 9.01562 3.49902C11.7549 3.49902 14.021 5.76514 14.021 8.50439C14.021 11.2437 11.7549 13.5098 9.01562 13.5098Z" fill="#D5D5D6"/>
</svg>
