<?xml version="1.0" encoding="utf-8"?>
<!-- Generator: Adobe Illustrator 23.0.2, SVG Export Plug-In . SVG Version: 6.00 Build 0)  -->
<svg version="1.1" id="Layer_1" xmlns="http://www.w3.org/2000/svg" xmlns:xlink="http://www.w3.org/1999/xlink" x="0px" y="0px"
	 viewBox="0 0 2500 723" style="enable-background:new 0 0 2500 723;" xml:space="preserve">
<style type="text/css">
	.st0{fill:#2A816E;}
	.st1{display:none;fill:#2A816E;}
	.st2{display:none;}
	.st3{display:inline;fill:#FFFFFF;}
</style>
<g id="XMLID_65_">
	<g id="XMLID_37_">
		<path id="XMLID_38_" class="st0" d="M901.6,210c16.8,0,28.9,4.6,38.2,11.6l12.1-11.6h8.7l1.7,59.6l-11,1.2
			c-6.9-26.6-22-50.9-47.4-50.9c-29.5,0-40.5,24.3-40.5,70.6c0,45.1,15.6,64.2,42.2,64.2c24.9,0,42.2-18.5,46.8-45.7l13.3,3.5
			c-8.1,37.6-29.5,55.5-68.2,55.5c-46.3,0-75.2-30.6-75.2-78.6C822.3,244.1,857,210,901.6,210L901.6,210z"/>
		<path id="XMLID_40_" class="st0" d="M980.8,353.4h9.3c11.6,0,12.7-2.3,12.7-10.4V235.4c0-8.1-1.2-10.4-12.7-10.4h-9.3v-11.6h140.5
			l1.2,54.9h-10.4c-9.3-30.7-19.7-43.4-53.2-43.4c-16.2,0-19.7,2.9-19.7,15v41.1h4c17.3,0,27.2-12.1,28.9-30.1h11l0.6,73.4h-11.6
			c-0.6-19.1-12.7-31.8-30.7-31.8h-2.3v48c0,11.6,1.7,13.3,23.1,13.3c30.1,0,42.8-14.5,51.5-45.1l10.4,1.2l-2.3,55.5H979.6
			L980.8,353.4z"/>
		<path id="XMLID_42_" class="st0" d="M1136.9,213.5h54.4l81,96.6v-59c0-19.7-3.5-25.4-23.1-26v-11.6h60.1V225
			c-19.7,1.2-23.1,6.9-23.1,26v115.7h-13.9l-97.2-118h-0.6v78.1c0,19.7,3.5,25.4,23.1,26v11.6h-60.1v-11.6
			c19.7-0.6,23.1-6.9,23.1-26V236c-5.2-7.5-13.3-11.6-23.1-11.6L1136.9,213.5L1136.9,213.5z"/>
		<path id="XMLID_44_" class="st0" d="M1343.4,353.4h11.6c11.6,0,12.7-2.3,12.7-10.4V231.4c0-5.8-1.2-7.5-8.1-7.5
			c-22,0-33,27.8-35.3,46.8h-10.4l3.5-56.7H1455l3.5,56.7h-10.4c-2.3-19.1-13.3-46.8-35.3-46.8c-6.9,0-8.1,1.7-8.1,7.5V343
			c0,8.1,1.2,10.4,12.7,10.4h11.6V365h-86.2L1343.4,353.4L1343.4,353.4z"/>
		<path id="XMLID_46_" class="st0" d="M1465.4,353.4h9.3c11.6,0,12.7-2.3,12.7-10.4V235.4c0-8.1-1.2-10.4-12.7-10.4h-9.3v-11.6h94.8
			c39.9,0,53.2,18.5,53.2,38.7c0,22-19.7,34.7-45.1,36.4v0.6c22,5.2,29.5,17.3,34.7,42.2c2.9,15,4.6,19.1,9.3,19.1
			c5.2,0,8.7-4.6,9.8-20.2h10.4c0,26.6-15,37.6-35.3,37.6c-18.5,0-33.5-9.3-33.5-34.7c0-34.1-6.4-41.1-27.8-41.1h-11V343
			c0,8.1,1.2,10.4,12.7,10.4h10.4V365H1466L1465.4,353.4L1465.4,353.4z M1525,280.5h8.1c24.3,0,41.1-5.8,41.1-29.5
			c0-20.2-10.4-26-29.5-26c-17.3,0-19.7,1.2-19.7,13.9V280.5L1525,280.5z"/>
		<path id="XMLID_49_" class="st0" d="M1636.6,353.4h9.3c11.6,0,12.7-2.3,12.7-10.4V235.4c0-8.1-1.2-10.4-12.7-10.4h-9.3v-11.6
			h140.5l1.2,54.9h-10.4c-9.3-30.7-19.7-43.4-53.2-43.4c-16.2,0-19.7,2.9-19.7,15v41.1h4c17.3,0,27.2-12.1,28.9-30.1h11l0.6,73.4
			H1728c-0.6-19.1-12.7-31.8-30.6-31.8h-2.3v48c0,11.6,1.7,13.3,23.1,13.3c30.1,0,42.8-14.5,51.5-45.1l10.4,1.2l-2.3,55.5h-141.1
			V353.4z"/>
		<path id="XMLID_51_" class="st0" d="M1787.5,213.5h75.8V225h-10.4c-4.6,0-6.9,1.2-6.9,4.6c0,1.7,0.6,4,1.7,6.9l34.1,86.7
			l30.1-77.5c1.2-2.9,1.2-5.2,1.2-7.5c0-8.1-9.3-13.3-17.3-13.3h-3.5v-11.6h62.5V225c-13.3,1.2-22.6,10.4-30.1,28.3l-46.8,113.3
			h-17.3l-50.9-126.1c-5.8-13.9-7.5-15.6-22-16.2V213.5z"/>
		<path id="XMLID_53_" class="st0" d="M1956.4,353.4h9.3c11.6,0,12.7-2.3,12.7-10.4V235.4c0-8.1-1.2-10.4-12.7-10.4h-9.3v-11.6h81
			V225h-9.3c-11.6,0-12.7,2.3-12.7,10.4V343c0,8.1,1.2,10.4,12.7,10.4h9.3V365h-81V353.4L1956.4,353.4z"/>
		<path id="XMLID_55_" class="st0" d="M2047.2,353.4h9.3c11.6,0,12.7-2.3,12.7-10.4V235.4c0-8.1-1.2-10.4-12.7-10.4h-9.3v-11.6h82.1
			V225h-10.4c-11.6,0-12.7,2.3-12.7,10.4v104.1c0,12.1,1.2,14.5,23.7,14.5c30.1,0,43.4-16.8,49.7-45.7h11l-2.3,56.7h-141.1V353.4z"
			/>
		<path id="XMLID_57_" class="st0" d="M2198.7,353.4h9.3c11.6,0,12.7-2.3,12.7-10.4V235.4c0-8.1-1.2-10.4-12.7-10.4h-9.3v-11.6h82.1
			V225h-10.4c-11.6,0-12.7,2.3-12.7,10.4v104.1c0,12.1,1.2,14.5,23.7,14.5c30.1,0,43.4-16.8,49.7-45.7h11l-2.3,56.7h-140.5v-11.6
			H2198.7z"/>
		<path id="XMLID_59_" class="st0" d="M2349.6,353.4h9.3c11.6,0,12.7-2.3,12.7-10.4V235.4c0-8.1-1.2-10.4-12.7-10.4h-9.3v-11.6
			h140.5l1.2,54.9h-10.4c-9.3-30.7-19.7-43.4-53.2-43.4c-16.2,0-19.7,2.9-19.7,15v41.1h4c17.3,0,27.2-12.1,28.9-30.1h11l0.6,73.4
			H2441c-0.6-19.1-12.7-31.8-30.6-31.8h-2.3v48c0,11.6,1.7,13.3,23.1,13.3c30.1,0,42.8-14.5,51.5-45.1l10.4,1.2l-2.3,55.5h-142.3
			L2349.6,353.4L2349.6,353.4z"/>
	</g>
	<g id="XMLID_3_">
		<path id="XMLID_4_" class="st1" d="M812.5,532.1c6.9-0.6,13.3-4.6,19.1-18.5l34.1-81h11l37,89.1c3.5,8.1,5.2,9.8,14.5,10.4v8.1
			h-50.9v-8.1h4.6c4,0,6.4-1.2,6.4-4c0-1.7-0.6-3.5-1.2-5.2l-5.8-15h-37c-3.5,7.5-4.6,11.6-4.6,14.5c0,7.5,6.4,9.8,14.5,9.8v8.1
			h-42.2L812.5,532.1z M877.3,499.1l-14.5-35.9l-15,35.9H877.3z"/>
		<path id="XMLID_7_" class="st1" d="M937.4,434.9H975l56.1,67.1V461c0-13.3-2.3-17.3-16.2-17.9v-8.1h41.6v8.1
			c-13.3,0.6-16.2,4.6-16.2,17.9v80.4h-9.3l-68.2-81.5h-0.6v54.4c0,13.3,2.3,17.3,16.2,17.9v8.1h-41.6v-8.1
			c13.3-0.6,16.2-4.6,16.2-17.9v-63.6c-3.5-5.2-9.3-8.1-16.2-8.1v-7.5H937.4z"/>
		<path id="XMLID_9_" class="st1" d="M1073.3,532.1h6.4c8.1,0,8.7-1.7,8.7-7.5V450c0-5.2-0.6-7.5-8.7-7.5h-6.4v-8.1h56.1v8.1h-6.4
			c-8.1,0-8.7,1.7-8.7,7.5v74.6c0,5.2,0.6,7.5,8.7,7.5h6.4v8.1h-56.1V532.1z"/>
		<path id="XMLID_11_" class="st1" d="M1146.8,532.1c10.4,0,15.6-4,15.6-18.5V450c0-5.2-0.6-7.5-8.7-7.5h-5.8v-8.1h46.8l22.6,63.6
			h0.6l21.4-63.6h48v8.1h-6.9c-8.1,0-8.7,1.7-8.7,7.5v74.6c0,5.2,0.6,7.5,8.7,7.5h6.9v8.1h-56.7v-8.1h6.4c8.1,0,8.7-1.7,8.7-7.5
			v-79.8h-0.6l-32.4,94.8h-6.9l-33-93.7h-0.6v65.9c0,12.7,2.9,20.2,13.9,20.2h2.3v8.1h-41.6L1146.8,532.1L1146.8,532.1z"/>
		<path id="XMLID_13_" class="st1" d="M1290.8,532.1c6.9-0.6,13.3-4.6,19.1-18.5l34.1-81h11l37,89.1c3.5,8.1,5.2,9.8,14.5,10.4v8.1
			h-50.9v-8.1h4.6c4,0,6.4-1.2,6.4-4c0-1.7-0.6-3.5-1.2-5.2l-5.8-15h-37c-3.5,7.5-4.6,11.6-4.6,14.5c0,7.5,6.4,9.8,14.5,9.8v8.1
			h-42.2L1290.8,532.1z M1355.5,499.1l-13.9-36.4l-15,35.9h28.9V499.1z"/>
		<path id="XMLID_16_" class="st1" d="M1418,532.1h6.4c8.1,0,8.7-1.7,8.7-7.5V450c0-5.2-0.6-7.5-8.7-7.5h-6.4v-8.1h56.7v8.1h-7.5
			c-8.1,0-8.7,1.7-8.7,7.5v71.7c0,8.7,0.6,9.8,16.2,9.8c20.8,0,30.1-11.6,34.1-31.2h7.5l-1.7,39.3h-97.7L1418,532.1z"/>
		<path id="XMLID_18_" class="st0" d="M1588,532.1h6.4c8.1,0,8.7-1.7,8.7-7.5V450c0-5.2-0.6-7.5-8.7-7.5h-6.4v-8.1h56.1v8.1h-6.4
			c-8.1,0-8.7,1.7-8.7,7.5v31.2h38.7V450c0-5.2-0.6-7.5-8.7-7.5h-6.4v-8.1h56.1v8.1h-6.4c-8.1,0-8.7,1.7-8.7,7.5v74.6
			c0,5.2,0.6,7.5,8.7,7.5h6.4v8.1h-56.1v-8.1h6.4c8.1,0,8.7-1.7,8.7-7.5v-34.7h-38.7v34.7c0,5.2,0.6,7.5,8.7,7.5h6.4v8.1H1588V532.1
			z"/>
		<path id="XMLID_20_" class="st0" d="M1783.5,432.6c30.6,0,54.9,23.7,54.9,54.4s-24.3,54.4-54.9,54.4s-54.9-23.7-54.9-54.4
			S1752.8,432.6,1783.5,432.6z M1783.5,535c17.3,0,26-16.2,26-47.4s-8.7-47.4-26-47.4c-17.3,0-26,16.2-26,47.4
			S1766.1,535,1783.5,535z"/>
		<path id="XMLID_23_" class="st0" d="M1862.7,499.7h6.9c5.8,16.8,19.7,34.1,39.3,34.1c10.4,0,20.8-4.6,20.8-16.2
			c0-8.7-4.6-12.7-15.6-15l-15-2.9c-26-5.2-37-19.1-37-33.5c0-22.6,17.9-33,38.2-33c9.3,0,17.9,2.3,25.4,8.1l8.1-6.9h6.4l1.7,38.2
			h-6.9c-5.2-15.6-17.9-31.2-35.9-31.2c-9.3,0-20.2,4.6-20.2,15c0,6.4,3.5,12.1,16.2,14.5l17.9,4c23.7,5.2,34.1,16.2,34.1,34.1
			s-13.3,33.5-37.6,33.5c-11.6,0-22-3.5-30.1-9.8l-9.3,9.3h-6.4L1862.7,499.7L1862.7,499.7z"/>
		<path id="XMLID_25_" class="st0" d="M1982.4,450c0-5.2-0.6-7.5-8.7-7.5h-6.4v-8.1h63c26.6,0,40.5,11,40.5,30.1
			c0,23.7-22,30.1-47.4,30.1c-5.2,0-9.8,0-15-0.6V524c0,5.2,0.6,7.5,8.7,7.5h6.9v8.1h-56.7v-7.5h6.4c8.1,0,8.7-1.7,8.7-7.5V450z
			 M2008.4,487.6h8.1c18.5,0,26.6-5.2,26.6-22.6c0-15.6-6.4-22-22.6-22c-9.3,0-12.1,1.2-12.1,7.5V487.6z"/>
		<path id="XMLID_28_" class="st0" d="M2090,532.1h6.4c8.1,0,8.7-1.7,8.7-7.5V450c0-5.2-0.6-7.5-8.7-7.5h-6.4v-8.1h56.1v8.1h-6.4
			c-8.1,0-8.7,1.7-8.7,7.5v74.6c0,5.2,0.6,7.5,8.7,7.5h6.4v8.1H2090V532.1z"/>
		<path id="XMLID_30_" class="st0" d="M2184.2,532.1h8.1c8.1,0,8.7-1.7,8.7-7.5v-76.9c0-4-0.6-5.2-5.8-5.2
			c-15.6,0-22.6,19.1-24.3,32.4h-6.9l2.3-39.3h95.4l2.3,39.3h-6.9c-1.7-13.3-9.3-32.4-24.3-32.4c-4.6,0-5.8,1.2-5.8,5.2v77.5
			c0,5.2,0.6,7.5,8.7,7.5h8.1v8.1h-59.6L2184.2,532.1L2184.2,532.1z"/>
		<path id="XMLID_32_" class="st0" d="M2273.3,532.1c6.9-0.6,13.3-4.6,19.1-18.5l34.7-81h11l37,89.1c3.5,8.1,5.2,9.8,14.5,10.4v8.1
			h-50.9v-8.1h4.6c4,0,6.4-1.2,6.4-4c0-1.7-0.6-3.5-1.2-5.2l-5.8-15h-37c-3.5,7.5-4.6,11.6-4.6,14.5c0,7.5,6.4,9.8,14.5,9.8v8.1
			h-42.2V532.1z M2338.1,499.1l-14.5-35.9l-15,35.9H2338.1z"/>
		<path id="XMLID_35_" class="st0" d="M2400.5,532.1h6.4c8.1,0,8.7-1.7,8.7-7.5V450c0-5.2-0.6-7.5-8.7-7.5h-6.4v-8.1h56.7v8.1h-7.5
			c-8.1,0-8.7,1.7-8.7,7.5v71.7c0,8.7,0.6,9.8,16.2,9.8c20.8,0,30.1-11.6,34.7-31.2h7.5l-1.7,39.3H2400v-7.5H2400.5z"/>
	</g>
	<g id="XMLID_66_">
		<path id="XMLID_64_" class="st0" d="M722.9,226.2H496.8V0.1H226.1v226.1H0v270.6h226.1v226.1h270.6V496.8h226.1V226.2z"/>
		<g id="XMLID_67_" class="st2">
			<path id="XMLID_63_" class="st3" d="M334.3,344.2c-19.1,21.4-24.3,49.2-16.2,69.4c5.2,12.1,16.2,22.6,11,66.5s37,44,65.3,37
				c28.3-6.9,33.5-38.2,52-58.4s59-12.7,63-63.6s-31.2-56.7-57.8-54.4c-26.6,2.3-50.9-16.8-68.2-17.3
				C366.1,322.8,349.9,326.8,334.3,344.2L334.3,344.2z"/>
			<path id="XMLID_62_" class="st3" d="M397.3,222.7c-16.2,6.4-16.2,47.4-3.5,70.6c12.7,23.1,35.3,28.9,52.6,20.2
				c17.3-8.7,11-45.1,0-67.1C435.5,224.4,413.5,216.3,397.3,222.7z"/>
			<path id="XMLID_61_" class="st3" d="M289.2,213.5c-19.1,13.3-15,40.5,10.4,72.9s47.4,30.1,60.7,19.7
				c13.3-10.4,12.1-41.1-10.4-74.6S300.7,205.4,289.2,213.5z"/>
			<path id="XMLID_2_" class="st3" d="M218,279.4c-16.2,12.7-8.7,48.6,14.5,70.6c23.1,22.6,54.4,27.8,65.9,15
				c11.6-12.1,9.3-49.7-20.8-74C247.5,266.7,227.9,271.3,218,279.4z"/>
			<path id="XMLID_1_" class="st3" d="M219.8,393.9c-9.8,15,2.9,42.8,24.3,55.5c21.4,12.7,45.1,19.7,56.7,3.5
				c11.6-16.2,1.2-44-20.2-59C259.1,378.3,230.2,377.7,219.8,393.9z"/>
		</g>
	</g>
</g>
</svg>
